<svg width="392" height="300" viewBox="0 0 392 300" fill="none" xmlns="http://www.w3.org/2000/svg">
<rect width="392" height="300" rx="4" fill="url(#paint0_linear_906_3922)"/>
<path d="M53.0904 19.4587C53.0904 20.2643 52.4373 20.9174 51.6317 20.9174C50.8261 20.9174 50.1731 20.2643 50.1731 19.4587C50.1731 18.6531 50.8261 18 51.6317 18C52.4373 18 53.0904 18.6531 53.0904 19.4587Z" fill="url(#paint1_linear_906_3922)"/>
<path d="M82.264 19.4587C82.264 20.2643 81.6109 20.9174 80.8053 20.9174C79.9997 20.9174 79.3466 20.2643 79.3466 19.4587C79.3466 18.6531 79.9997 18 80.8053 18C81.6109 18 82.264 18.6531 82.264 19.4587Z" fill="url(#paint2_linear_906_3922)"/>
<path d="M111.438 19.4587C111.438 20.2643 110.784 20.9174 109.979 20.9174C109.173 20.9174 108.52 20.2643 108.52 19.4587C108.52 18.6531 109.173 18 109.979 18C110.784 18 111.438 18.6531 111.438 19.4587Z" fill="url(#paint3_linear_906_3922)"/>
<path d="M140.611 19.4587C140.611 20.2643 139.958 20.9174 139.152 20.9174C138.347 20.9174 137.694 20.2643 137.694 19.4587C137.694 18.6531 138.347 18 139.152 18C139.958 18 140.611 18.6531 140.611 19.4587Z" fill="url(#paint4_linear_906_3922)"/>
<path d="M169.785 19.4587C169.785 20.2643 169.132 20.9174 168.326 20.9174C167.52 20.9174 166.867 20.2643 166.867 19.4587C166.867 18.6531 167.52 18 168.326 18C169.132 18 169.785 18.6531 169.785 19.4587Z" fill="url(#paint5_linear_906_3922)"/>
<path d="M198.958 19.4587C198.958 20.2643 198.305 20.9174 197.499 20.9174C196.694 20.9174 196.041 20.2643 196.041 19.4587C196.041 18.6531 196.694 18 197.499 18C198.305 18 198.958 18.6531 198.958 19.4587Z" fill="url(#paint6_linear_906_3922)"/>
<path d="M228.132 19.4587C228.132 20.2643 227.479 20.9174 226.673 20.9174C225.867 20.9174 225.214 20.2643 225.214 19.4587C225.214 18.6531 225.867 18 226.673 18C227.479 18 228.132 18.6531 228.132 19.4587Z" fill="url(#paint7_linear_906_3922)"/>
<path d="M257.305 19.4587C257.305 20.2643 256.652 20.9174 255.847 20.9174C255.041 20.9174 254.388 20.2643 254.388 19.4587C254.388 18.6531 255.041 18 255.847 18C256.652 18 257.305 18.6531 257.305 19.4587Z" fill="url(#paint8_linear_906_3922)"/>
<path d="M286.479 19.4587C286.479 20.2643 285.826 20.9174 285.02 20.9174C284.215 20.9174 283.561 20.2643 283.561 19.4587C283.561 18.6531 284.215 18 285.02 18C285.826 18 286.479 18.6531 286.479 19.4587Z" fill="url(#paint9_linear_906_3922)"/>
<path d="M315.652 19.4587C315.652 20.2643 314.999 20.9174 314.194 20.9174C313.388 20.9174 312.735 20.2643 312.735 19.4587C312.735 18.6531 313.388 18 314.194 18C314.999 18 315.652 18.6531 315.652 19.4587Z" fill="url(#paint10_linear_906_3922)"/>
<path d="M344.826 19.4587C344.826 20.2643 344.173 20.9174 343.367 20.9174C342.562 20.9174 341.909 20.2643 341.909 19.4587C341.909 18.6531 342.562 18 343.367 18C344.173 18 344.826 18.6531 344.826 19.4587Z" fill="url(#paint11_linear_906_3922)"/>
<path d="M373.999 19.4587C373.999 20.2643 373.346 20.9174 372.541 20.9174C371.735 20.9174 371.082 20.2643 371.082 19.4587C371.082 18.6531 371.735 18 372.541 18C373.346 18 373.999 18.6531 373.999 19.4587Z" fill="url(#paint12_linear_906_3922)"/>
<path d="M23.9169 48.6322C23.9169 49.4378 23.2638 50.0909 22.4582 50.0909C21.6526 50.0909 20.9995 49.4378 20.9995 48.6322C20.9995 47.8266 21.6526 47.1735 22.4582 47.1735C23.2638 47.1735 23.9169 47.8266 23.9169 48.6322Z" fill="url(#paint13_linear_906_3922)"/>
<path d="M53.0904 48.6322C53.0904 49.4378 52.4373 50.0909 51.6317 50.0909C50.8261 50.0909 50.1731 49.4378 50.1731 48.6322C50.1731 47.8266 50.8261 47.1735 51.6317 47.1735C52.4373 47.1735 53.0904 47.8266 53.0904 48.6322Z" fill="url(#paint14_linear_906_3922)"/>
<path d="M82.264 48.6322C82.264 49.4378 81.6109 50.0909 80.8053 50.0909C79.9997 50.0909 79.3466 49.4378 79.3466 48.6322C79.3466 47.8266 79.9997 47.1735 80.8053 47.1735C81.6109 47.1735 82.264 47.8266 82.264 48.6322Z" fill="url(#paint15_linear_906_3922)"/>
<path d="M111.438 48.6322C111.438 49.4378 110.784 50.0909 109.979 50.0909C109.173 50.0909 108.52 49.4378 108.52 48.6322C108.52 47.8266 109.173 47.1735 109.979 47.1735C110.784 47.1735 111.438 47.8266 111.438 48.6322Z" fill="url(#paint16_linear_906_3922)"/>
<path d="M140.611 48.6322C140.611 49.4378 139.958 50.0909 139.152 50.0909C138.347 50.0909 137.694 49.4378 137.694 48.6322C137.694 47.8266 138.347 47.1735 139.152 47.1735C139.958 47.1735 140.611 47.8266 140.611 48.6322Z" fill="url(#paint17_linear_906_3922)"/>
<path d="M169.785 48.6322C169.785 49.4378 169.132 50.0909 168.326 50.0909C167.52 50.0909 166.867 49.4378 166.867 48.6322C166.867 47.8266 167.52 47.1735 168.326 47.1735C169.132 47.1735 169.785 47.8266 169.785 48.6322Z" fill="url(#paint18_linear_906_3922)"/>
<path d="M198.958 48.6322C198.958 49.4378 198.305 50.0909 197.499 50.0909C196.694 50.0909 196.041 49.4378 196.041 48.6322C196.041 47.8266 196.694 47.1735 197.499 47.1735C198.305 47.1735 198.958 47.8266 198.958 48.6322Z" fill="url(#paint19_linear_906_3922)"/>
<path d="M228.132 48.6322C228.132 49.4378 227.479 50.0909 226.673 50.0909C225.867 50.0909 225.214 49.4378 225.214 48.6322C225.214 47.8266 225.867 47.1735 226.673 47.1735C227.479 47.1735 228.132 47.8266 228.132 48.6322Z" fill="url(#paint20_linear_906_3922)"/>
<path d="M257.305 48.6322C257.305 49.4378 256.652 50.0909 255.847 50.0909C255.041 50.0909 254.388 49.4378 254.388 48.6322C254.388 47.8266 255.041 47.1735 255.847 47.1735C256.652 47.1735 257.305 47.8266 257.305 48.6322Z" fill="url(#paint21_linear_906_3922)"/>
<path d="M286.479 48.6322C286.479 49.4378 285.826 50.0909 285.02 50.0909C284.215 50.0909 283.561 49.4378 283.561 48.6322C283.561 47.8266 284.215 47.1735 285.02 47.1735C285.826 47.1735 286.479 47.8266 286.479 48.6322Z" fill="url(#paint22_linear_906_3922)"/>
<path d="M315.652 48.6322C315.652 49.4378 314.999 50.0909 314.194 50.0909C313.388 50.0909 312.735 49.4378 312.735 48.6322C312.735 47.8266 313.388 47.1735 314.194 47.1735C314.999 47.1735 315.652 47.8266 315.652 48.6322Z" fill="url(#paint23_linear_906_3922)"/>
<path d="M344.826 48.6322C344.826 49.4378 344.173 50.0909 343.367 50.0909C342.562 50.0909 341.909 49.4378 341.909 48.6322C341.909 47.8266 342.562 47.1735 343.367 47.1735C344.173 47.1735 344.826 47.8266 344.826 48.6322Z" fill="url(#paint24_linear_906_3922)"/>
<path d="M373.999 48.6322C373.999 49.4378 373.346 50.0909 372.541 50.0909C371.735 50.0909 371.082 49.4378 371.082 48.6322C371.082 47.8266 371.735 47.1735 372.541 47.1735C373.346 47.1735 373.999 47.8266 373.999 48.6322Z" fill="url(#paint25_linear_906_3922)"/>
<path d="M23.9169 77.8058C23.9169 78.6114 23.2638 79.2645 22.4582 79.2645C21.6526 79.2645 20.9995 78.6114 20.9995 77.8058C20.9995 77.0002 21.6526 76.3471 22.4582 76.3471C23.2638 76.3471 23.9169 77.0002 23.9169 77.8058Z" fill="url(#paint26_linear_906_3922)"/>
<path d="M53.0904 77.8058C53.0904 78.6114 52.4373 79.2645 51.6317 79.2645C50.8261 79.2645 50.1731 78.6114 50.1731 77.8058C50.1731 77.0002 50.8261 76.3471 51.6317 76.3471C52.4373 76.3471 53.0904 77.0002 53.0904 77.8058Z" fill="url(#paint27_linear_906_3922)"/>
<path d="M82.264 77.8058C82.264 78.6114 81.6109 79.2645 80.8053 79.2645C79.9997 79.2645 79.3466 78.6114 79.3466 77.8058C79.3466 77.0002 79.9997 76.3471 80.8053 76.3471C81.6109 76.3471 82.264 77.0002 82.264 77.8058Z" fill="url(#paint28_linear_906_3922)"/>
<path d="M111.438 77.8058C111.438 78.6114 110.784 79.2645 109.979 79.2645C109.173 79.2645 108.52 78.6114 108.52 77.8058C108.52 77.0002 109.173 76.3471 109.979 76.3471C110.784 76.3471 111.438 77.0002 111.438 77.8058Z" fill="url(#paint29_linear_906_3922)"/>
<path d="M140.611 77.8058C140.611 78.6114 139.958 79.2645 139.152 79.2645C138.347 79.2645 137.694 78.6114 137.694 77.8058C137.694 77.0002 138.347 76.3471 139.152 76.3471C139.958 76.3471 140.611 77.0002 140.611 77.8058Z" fill="url(#paint30_linear_906_3922)"/>
<path d="M169.785 77.8058C169.785 78.6114 169.132 79.2645 168.326 79.2645C167.52 79.2645 166.867 78.6114 166.867 77.8058C166.867 77.0002 167.52 76.3471 168.326 76.3471C169.132 76.3471 169.785 77.0002 169.785 77.8058Z" fill="url(#paint31_linear_906_3922)"/>
<path d="M198.958 77.8058C198.958 78.6114 198.305 79.2645 197.499 79.2645C196.694 79.2645 196.041 78.6114 196.041 77.8058C196.041 77.0002 196.694 76.3471 197.499 76.3471C198.305 76.3471 198.958 77.0002 198.958 77.8058Z" fill="url(#paint32_linear_906_3922)"/>
<path d="M228.132 77.8058C228.132 78.6114 227.479 79.2645 226.673 79.2645C225.867 79.2645 225.214 78.6114 225.214 77.8058C225.214 77.0002 225.867 76.3471 226.673 76.3471C227.479 76.3471 228.132 77.0002 228.132 77.8058Z" fill="url(#paint33_linear_906_3922)"/>
<path d="M257.305 77.8058C257.305 78.6114 256.652 79.2645 255.847 79.2645C255.041 79.2645 254.388 78.6114 254.388 77.8058C254.388 77.0002 255.041 76.3471 255.847 76.3471C256.652 76.3471 257.305 77.0002 257.305 77.8058Z" fill="url(#paint34_linear_906_3922)"/>
<path d="M286.479 77.8058C286.479 78.6114 285.826 79.2645 285.02 79.2645C284.215 79.2645 283.561 78.6114 283.561 77.8058C283.561 77.0002 284.215 76.3471 285.02 76.3471C285.826 76.3471 286.479 77.0002 286.479 77.8058Z" fill="url(#paint35_linear_906_3922)"/>
<path d="M315.652 77.8058C315.652 78.6114 314.999 79.2645 314.194 79.2645C313.388 79.2645 312.735 78.6114 312.735 77.8058C312.735 77.0002 313.388 76.3471 314.194 76.3471C314.999 76.3471 315.652 77.0002 315.652 77.8058Z" fill="url(#paint36_linear_906_3922)"/>
<path d="M344.826 77.8058C344.826 78.6114 344.173 79.2645 343.367 79.2645C342.562 79.2645 341.909 78.6114 341.909 77.8058C341.909 77.0002 342.562 76.3471 343.367 76.3471C344.173 76.3471 344.826 77.0002 344.826 77.8058Z" fill="url(#paint37_linear_906_3922)"/>
<path d="M373.999 77.8058C373.999 78.6114 373.346 79.2645 372.541 79.2645C371.735 79.2645 371.082 78.6114 371.082 77.8058C371.082 77.0002 371.735 76.3471 372.541 76.3471C373.346 76.3471 373.999 77.0002 373.999 77.8058Z" fill="url(#paint38_linear_906_3922)"/>
<path d="M23.9169 106.979C23.9169 107.785 23.2638 108.438 22.4582 108.438C21.6526 108.438 20.9995 107.785 20.9995 106.979C20.9995 106.174 21.6526 105.521 22.4582 105.521C23.2638 105.521 23.9169 106.174 23.9169 106.979Z" fill="url(#paint39_linear_906_3922)"/>
<path d="M53.0904 106.979C53.0904 107.785 52.4373 108.438 51.6317 108.438C50.8261 108.438 50.1731 107.785 50.1731 106.979C50.1731 106.174 50.8261 105.521 51.6317 105.521C52.4373 105.521 53.0904 106.174 53.0904 106.979Z" fill="url(#paint40_linear_906_3922)"/>
<path d="M82.264 106.979C82.264 107.785 81.6109 108.438 80.8053 108.438C79.9997 108.438 79.3466 107.785 79.3466 106.979C79.3466 106.174 79.9997 105.521 80.8053 105.521C81.6109 105.521 82.264 106.174 82.264 106.979Z" fill="url(#paint41_linear_906_3922)"/>
<path d="M111.438 106.979C111.438 107.785 110.784 108.438 109.979 108.438C109.173 108.438 108.52 107.785 108.52 106.979C108.52 106.174 109.173 105.521 109.979 105.521C110.784 105.521 111.438 106.174 111.438 106.979Z" fill="url(#paint42_linear_906_3922)"/>
<path d="M140.611 106.979C140.611 107.785 139.958 108.438 139.152 108.438C138.347 108.438 137.694 107.785 137.694 106.979C137.694 106.174 138.347 105.521 139.152 105.521C139.958 105.521 140.611 106.174 140.611 106.979Z" fill="url(#paint43_linear_906_3922)"/>
<path d="M169.785 106.979C169.785 107.785 169.132 108.438 168.326 108.438C167.52 108.438 166.867 107.785 166.867 106.979C166.867 106.174 167.52 105.521 168.326 105.521C169.132 105.521 169.785 106.174 169.785 106.979Z" fill="url(#paint44_linear_906_3922)"/>
<path d="M198.958 106.979C198.958 107.785 198.305 108.438 197.499 108.438C196.694 108.438 196.041 107.785 196.041 106.979C196.041 106.174 196.694 105.521 197.499 105.521C198.305 105.521 198.958 106.174 198.958 106.979Z" fill="url(#paint45_linear_906_3922)"/>
<path d="M228.132 106.979C228.132 107.785 227.479 108.438 226.673 108.438C225.867 108.438 225.214 107.785 225.214 106.979C225.214 106.174 225.867 105.521 226.673 105.521C227.479 105.521 228.132 106.174 228.132 106.979Z" fill="url(#paint46_linear_906_3922)"/>
<path d="M257.305 106.979C257.305 107.785 256.652 108.438 255.847 108.438C255.041 108.438 254.388 107.785 254.388 106.979C254.388 106.174 255.041 105.521 255.847 105.521C256.652 105.521 257.305 106.174 257.305 106.979Z" fill="url(#paint47_linear_906_3922)"/>
<path d="M286.479 106.979C286.479 107.785 285.826 108.438 285.02 108.438C284.215 108.438 283.561 107.785 283.561 106.979C283.561 106.174 284.215 105.521 285.02 105.521C285.826 105.521 286.479 106.174 286.479 106.979Z" fill="url(#paint48_linear_906_3922)"/>
<path d="M315.652 106.979C315.652 107.785 314.999 108.438 314.194 108.438C313.388 108.438 312.735 107.785 312.735 106.979C312.735 106.174 313.388 105.521 314.194 105.521C314.999 105.521 315.652 106.174 315.652 106.979Z" fill="url(#paint49_linear_906_3922)"/>
<path d="M344.826 106.979C344.826 107.785 344.173 108.438 343.367 108.438C342.562 108.438 341.909 107.785 341.909 106.979C341.909 106.174 342.562 105.521 343.367 105.521C344.173 105.521 344.826 106.174 344.826 106.979Z" fill="url(#paint50_linear_906_3922)"/>
<path d="M373.999 106.979C373.999 107.785 373.346 108.438 372.541 108.438C371.735 108.438 371.082 107.785 371.082 106.979C371.082 106.174 371.735 105.521 372.541 105.521C373.346 105.521 373.999 106.174 373.999 106.979Z" fill="url(#paint51_linear_906_3922)"/>
<path d="M23.9169 136.153C23.9169 136.958 23.2638 137.612 22.4582 137.612C21.6526 137.612 20.9995 136.958 20.9995 136.153C20.9995 135.347 21.6526 134.694 22.4582 134.694C23.2638 134.694 23.9169 135.347 23.9169 136.153Z" fill="url(#paint52_linear_906_3922)"/>
<path d="M53.0904 136.153C53.0904 136.958 52.4373 137.612 51.6317 137.612C50.8261 137.612 50.1731 136.958 50.1731 136.153C50.1731 135.347 50.8261 134.694 51.6317 134.694C52.4373 134.694 53.0904 135.347 53.0904 136.153Z" fill="url(#paint53_linear_906_3922)"/>
<path d="M82.264 136.153C82.264 136.958 81.6109 137.612 80.8053 137.612C79.9997 137.612 79.3466 136.958 79.3466 136.153C79.3466 135.347 79.9997 134.694 80.8053 134.694C81.6109 134.694 82.264 135.347 82.264 136.153Z" fill="url(#paint54_linear_906_3922)"/>
<path d="M111.438 136.153C111.438 136.958 110.784 137.612 109.979 137.612C109.173 137.612 108.52 136.958 108.52 136.153C108.52 135.347 109.173 134.694 109.979 134.694C110.784 134.694 111.438 135.347 111.438 136.153Z" fill="url(#paint55_linear_906_3922)"/>
<path d="M140.611 136.153C140.611 136.958 139.958 137.612 139.152 137.612C138.347 137.612 137.694 136.958 137.694 136.153C137.694 135.347 138.347 134.694 139.152 134.694C139.958 134.694 140.611 135.347 140.611 136.153Z" fill="url(#paint56_linear_906_3922)"/>
<path d="M169.785 136.153C169.785 136.958 169.132 137.612 168.326 137.612C167.52 137.612 166.867 136.958 166.867 136.153C166.867 135.347 167.52 134.694 168.326 134.694C169.132 134.694 169.785 135.347 169.785 136.153Z" fill="url(#paint57_linear_906_3922)"/>
<path d="M198.958 136.153C198.958 136.958 198.305 137.612 197.499 137.612C196.694 137.612 196.041 136.958 196.041 136.153C196.041 135.347 196.694 134.694 197.499 134.694C198.305 134.694 198.958 135.347 198.958 136.153Z" fill="url(#paint58_linear_906_3922)"/>
<path d="M228.132 136.153C228.132 136.958 227.479 137.612 226.673 137.612C225.867 137.612 225.214 136.958 225.214 136.153C225.214 135.347 225.867 134.694 226.673 134.694C227.479 134.694 228.132 135.347 228.132 136.153Z" fill="url(#paint59_linear_906_3922)"/>
<path d="M257.305 136.153C257.305 136.958 256.652 137.612 255.847 137.612C255.041 137.612 254.388 136.958 254.388 136.153C254.388 135.347 255.041 134.694 255.847 134.694C256.652 134.694 257.305 135.347 257.305 136.153Z" fill="url(#paint60_linear_906_3922)"/>
<path d="M286.479 136.153C286.479 136.958 285.826 137.612 285.02 137.612C284.215 137.612 283.561 136.958 283.561 136.153C283.561 135.347 284.215 134.694 285.02 134.694C285.826 134.694 286.479 135.347 286.479 136.153Z" fill="url(#paint61_linear_906_3922)"/>
<path d="M315.652 136.153C315.652 136.958 314.999 137.612 314.194 137.612C313.388 137.612 312.735 136.958 312.735 136.153C312.735 135.347 313.388 134.694 314.194 134.694C314.999 134.694 315.652 135.347 315.652 136.153Z" fill="url(#paint62_linear_906_3922)"/>
<path d="M344.826 136.153C344.826 136.958 344.173 137.612 343.367 137.612C342.562 137.612 341.909 136.958 341.909 136.153C341.909 135.347 342.562 134.694 343.367 134.694C344.173 134.694 344.826 135.347 344.826 136.153Z" fill="url(#paint63_linear_906_3922)"/>
<path d="M373.999 136.153C373.999 136.958 373.346 137.612 372.541 137.612C371.735 137.612 371.082 136.958 371.082 136.153C371.082 135.347 371.735 134.694 372.541 134.694C373.346 134.694 373.999 135.347 373.999 136.153Z" fill="url(#paint64_linear_906_3922)"/>
<path d="M23.9169 165.326C23.9169 166.132 23.2638 166.785 22.4582 166.785C21.6526 166.785 20.9995 166.132 20.9995 165.326C20.9995 164.521 21.6526 163.868 22.4582 163.868C23.2638 163.868 23.9169 164.521 23.9169 165.326Z" fill="url(#paint65_linear_906_3922)"/>
<path d="M53.0904 165.326C53.0904 166.132 52.4373 166.785 51.6317 166.785C50.8261 166.785 50.1731 166.132 50.1731 165.326C50.1731 164.521 50.8261 163.868 51.6317 163.868C52.4373 163.868 53.0904 164.521 53.0904 165.326Z" fill="url(#paint66_linear_906_3922)"/>
<path d="M82.264 165.326C82.264 166.132 81.6109 166.785 80.8053 166.785C79.9997 166.785 79.3466 166.132 79.3466 165.326C79.3466 164.521 79.9997 163.868 80.8053 163.868C81.6109 163.868 82.264 164.521 82.264 165.326Z" fill="url(#paint67_linear_906_3922)"/>
<path d="M111.438 165.326C111.438 166.132 110.784 166.785 109.979 166.785C109.173 166.785 108.52 166.132 108.52 165.326C108.52 164.521 109.173 163.868 109.979 163.868C110.784 163.868 111.438 164.521 111.438 165.326Z" fill="url(#paint68_linear_906_3922)"/>
<path d="M140.611 165.326C140.611 166.132 139.958 166.785 139.152 166.785C138.347 166.785 137.694 166.132 137.694 165.326C137.694 164.521 138.347 163.868 139.152 163.868C139.958 163.868 140.611 164.521 140.611 165.326Z" fill="url(#paint69_linear_906_3922)"/>
<path d="M169.785 165.326C169.785 166.132 169.132 166.785 168.326 166.785C167.52 166.785 166.867 166.132 166.867 165.326C166.867 164.521 167.52 163.868 168.326 163.868C169.132 163.868 169.785 164.521 169.785 165.326Z" fill="url(#paint70_linear_906_3922)"/>
<path d="M198.958 165.326C198.958 166.132 198.305 166.785 197.499 166.785C196.694 166.785 196.041 166.132 196.041 165.326C196.041 164.521 196.694 163.868 197.499 163.868C198.305 163.868 198.958 164.521 198.958 165.326Z" fill="url(#paint71_linear_906_3922)"/>
<path d="M228.132 165.326C228.132 166.132 227.479 166.785 226.673 166.785C225.867 166.785 225.214 166.132 225.214 165.326C225.214 164.521 225.867 163.868 226.673 163.868C227.479 163.868 228.132 164.521 228.132 165.326Z" fill="url(#paint72_linear_906_3922)"/>
<path d="M257.305 165.326C257.305 166.132 256.652 166.785 255.847 166.785C255.041 166.785 254.388 166.132 254.388 165.326C254.388 164.521 255.041 163.868 255.847 163.868C256.652 163.868 257.305 164.521 257.305 165.326Z" fill="url(#paint73_linear_906_3922)"/>
<path d="M286.479 165.326C286.479 166.132 285.826 166.785 285.02 166.785C284.215 166.785 283.561 166.132 283.561 165.326C283.561 164.521 284.215 163.868 285.02 163.868C285.826 163.868 286.479 164.521 286.479 165.326Z" fill="url(#paint74_linear_906_3922)"/>
<path d="M315.652 165.326C315.652 166.132 314.999 166.785 314.194 166.785C313.388 166.785 312.735 166.132 312.735 165.326C312.735 164.521 313.388 163.868 314.194 163.868C314.999 163.868 315.652 164.521 315.652 165.326Z" fill="url(#paint75_linear_906_3922)"/>
<path d="M344.826 165.326C344.826 166.132 344.173 166.785 343.367 166.785C342.562 166.785 341.909 166.132 341.909 165.326C341.909 164.521 342.562 163.868 343.367 163.868C344.173 163.868 344.826 164.521 344.826 165.326Z" fill="url(#paint76_linear_906_3922)"/>
<path d="M373.999 165.326C373.999 166.132 373.346 166.785 372.541 166.785C371.735 166.785 371.082 166.132 371.082 165.326C371.082 164.521 371.735 163.868 372.541 163.868C373.346 163.868 373.999 164.521 373.999 165.326Z" fill="url(#paint77_linear_906_3922)"/>
<path d="M23.9169 194.5C23.9169 195.306 23.2638 195.959 22.4582 195.959C21.6526 195.959 20.9995 195.306 20.9995 194.5C20.9995 193.694 21.6526 193.041 22.4582 193.041C23.2638 193.041 23.9169 193.694 23.9169 194.5Z" fill="url(#paint78_linear_906_3922)"/>
<path d="M53.0904 194.5C53.0904 195.306 52.4373 195.959 51.6317 195.959C50.8261 195.959 50.1731 195.306 50.1731 194.5C50.1731 193.694 50.8261 193.041 51.6317 193.041C52.4373 193.041 53.0904 193.694 53.0904 194.5Z" fill="url(#paint79_linear_906_3922)"/>
<path d="M82.264 194.5C82.264 195.306 81.6109 195.959 80.8053 195.959C79.9997 195.959 79.3466 195.306 79.3466 194.5C79.3466 193.694 79.9997 193.041 80.8053 193.041C81.6109 193.041 82.264 193.694 82.264 194.5Z" fill="url(#paint80_linear_906_3922)"/>
<path d="M111.438 194.5C111.438 195.306 110.784 195.959 109.979 195.959C109.173 195.959 108.52 195.306 108.52 194.5C108.52 193.694 109.173 193.041 109.979 193.041C110.784 193.041 111.438 193.694 111.438 194.5Z" fill="url(#paint81_linear_906_3922)"/>
<path d="M140.611 194.5C140.611 195.306 139.958 195.959 139.152 195.959C138.347 195.959 137.694 195.306 137.694 194.5C137.694 193.694 138.347 193.041 139.152 193.041C139.958 193.041 140.611 193.694 140.611 194.5Z" fill="url(#paint82_linear_906_3922)"/>
<path d="M169.785 194.5C169.785 195.306 169.132 195.959 168.326 195.959C167.52 195.959 166.867 195.306 166.867 194.5C166.867 193.694 167.52 193.041 168.326 193.041C169.132 193.041 169.785 193.694 169.785 194.5Z" fill="url(#paint83_linear_906_3922)"/>
<path d="M198.958 194.5C198.958 195.306 198.305 195.959 197.499 195.959C196.694 195.959 196.041 195.306 196.041 194.5C196.041 193.694 196.694 193.041 197.499 193.041C198.305 193.041 198.958 193.694 198.958 194.5Z" fill="url(#paint84_linear_906_3922)"/>
<path d="M228.132 194.5C228.132 195.306 227.479 195.959 226.673 195.959C225.867 195.959 225.214 195.306 225.214 194.5C225.214 193.694 225.867 193.041 226.673 193.041C227.479 193.041 228.132 193.694 228.132 194.5Z" fill="url(#paint85_linear_906_3922)"/>
<path d="M257.305 194.5C257.305 195.306 256.652 195.959 255.847 195.959C255.041 195.959 254.388 195.306 254.388 194.5C254.388 193.694 255.041 193.041 255.847 193.041C256.652 193.041 257.305 193.694 257.305 194.5Z" fill="url(#paint86_linear_906_3922)"/>
<path d="M286.479 194.5C286.479 195.306 285.826 195.959 285.02 195.959C284.215 195.959 283.561 195.306 283.561 194.5C283.561 193.694 284.215 193.041 285.02 193.041C285.826 193.041 286.479 193.694 286.479 194.5Z" fill="url(#paint87_linear_906_3922)"/>
<path d="M315.652 194.5C315.652 195.306 314.999 195.959 314.194 195.959C313.388 195.959 312.735 195.306 312.735 194.5C312.735 193.694 313.388 193.041 314.194 193.041C314.999 193.041 315.652 193.694 315.652 194.5Z" fill="url(#paint88_linear_906_3922)"/>
<path d="M344.826 194.5C344.826 195.306 344.173 195.959 343.367 195.959C342.562 195.959 341.909 195.306 341.909 194.5C341.909 193.694 342.562 193.041 343.367 193.041C344.173 193.041 344.826 193.694 344.826 194.5Z" fill="url(#paint89_linear_906_3922)"/>
<path d="M373.999 194.5C373.999 195.306 373.346 195.959 372.541 195.959C371.735 195.959 371.082 195.306 371.082 194.5C371.082 193.694 371.735 193.041 372.541 193.041C373.346 193.041 373.999 193.694 373.999 194.5Z" fill="url(#paint90_linear_906_3922)"/>
<path d="M23.9169 223.674C23.9169 224.479 23.2638 225.132 22.4582 225.132C21.6526 225.132 20.9995 224.479 20.9995 223.674C20.9995 222.868 21.6526 222.215 22.4582 222.215C23.2638 222.215 23.9169 222.868 23.9169 223.674Z" fill="url(#paint91_linear_906_3922)"/>
<path d="M53.0904 223.674C53.0904 224.479 52.4373 225.132 51.6317 225.132C50.8261 225.132 50.1731 224.479 50.1731 223.674C50.1731 222.868 50.8261 222.215 51.6317 222.215C52.4373 222.215 53.0904 222.868 53.0904 223.674Z" fill="url(#paint92_linear_906_3922)"/>
<path d="M82.264 223.674C82.264 224.479 81.6109 225.132 80.8053 225.132C79.9997 225.132 79.3466 224.479 79.3466 223.674C79.3466 222.868 79.9997 222.215 80.8053 222.215C81.6109 222.215 82.264 222.868 82.264 223.674Z" fill="url(#paint93_linear_906_3922)"/>
<path d="M111.438 223.674C111.438 224.479 110.784 225.132 109.979 225.132C109.173 225.132 108.52 224.479 108.52 223.674C108.52 222.868 109.173 222.215 109.979 222.215C110.784 222.215 111.438 222.868 111.438 223.674Z" fill="url(#paint94_linear_906_3922)"/>
<path d="M140.611 223.674C140.611 224.479 139.958 225.132 139.152 225.132C138.347 225.132 137.694 224.479 137.694 223.674C137.694 222.868 138.347 222.215 139.152 222.215C139.958 222.215 140.611 222.868 140.611 223.674Z" fill="url(#paint95_linear_906_3922)"/>
<path d="M169.785 223.674C169.785 224.479 169.132 225.132 168.326 225.132C167.52 225.132 166.867 224.479 166.867 223.674C166.867 222.868 167.52 222.215 168.326 222.215C169.132 222.215 169.785 222.868 169.785 223.674Z" fill="url(#paint96_linear_906_3922)"/>
<path d="M198.958 223.674C198.958 224.479 198.305 225.132 197.499 225.132C196.694 225.132 196.041 224.479 196.041 223.674C196.041 222.868 196.694 222.215 197.499 222.215C198.305 222.215 198.958 222.868 198.958 223.674Z" fill="url(#paint97_linear_906_3922)"/>
<path d="M228.132 223.674C228.132 224.479 227.479 225.132 226.673 225.132C225.867 225.132 225.214 224.479 225.214 223.674C225.214 222.868 225.867 222.215 226.673 222.215C227.479 222.215 228.132 222.868 228.132 223.674Z" fill="url(#paint98_linear_906_3922)"/>
<path d="M257.305 223.674C257.305 224.479 256.652 225.132 255.847 225.132C255.041 225.132 254.388 224.479 254.388 223.674C254.388 222.868 255.041 222.215 255.847 222.215C256.652 222.215 257.305 222.868 257.305 223.674Z" fill="url(#paint99_linear_906_3922)"/>
<path d="M286.479 223.674C286.479 224.479 285.826 225.132 285.02 225.132C284.215 225.132 283.561 224.479 283.561 223.674C283.561 222.868 284.215 222.215 285.02 222.215C285.826 222.215 286.479 222.868 286.479 223.674Z" fill="url(#paint100_linear_906_3922)"/>
<path d="M315.652 223.674C315.652 224.479 314.999 225.132 314.194 225.132C313.388 225.132 312.735 224.479 312.735 223.674C312.735 222.868 313.388 222.215 314.194 222.215C314.999 222.215 315.652 222.868 315.652 223.674Z" fill="url(#paint101_linear_906_3922)"/>
<path d="M344.826 223.674C344.826 224.479 344.173 225.132 343.367 225.132C342.562 225.132 341.909 224.479 341.909 223.674C341.909 222.868 342.562 222.215 343.367 222.215C344.173 222.215 344.826 222.868 344.826 223.674Z" fill="url(#paint102_linear_906_3922)"/>
<path d="M373.999 223.674C373.999 224.479 373.346 225.132 372.541 225.132C371.735 225.132 371.082 224.479 371.082 223.674C371.082 222.868 371.735 222.215 372.541 222.215C373.346 222.215 373.999 222.868 373.999 223.674Z" fill="url(#paint103_linear_906_3922)"/>
<path d="M23.9169 252.847C23.9169 253.653 23.2638 254.306 22.4582 254.306C21.6526 254.306 20.9995 253.653 20.9995 252.847C20.9995 252.041 21.6526 251.388 22.4582 251.388C23.2638 251.388 23.9169 252.041 23.9169 252.847Z" fill="url(#paint104_linear_906_3922)"/>
<path d="M53.0904 252.847C53.0904 253.653 52.4373 254.306 51.6317 254.306C50.8261 254.306 50.1731 253.653 50.1731 252.847C50.1731 252.041 50.8261 251.388 51.6317 251.388C52.4373 251.388 53.0904 252.041 53.0904 252.847Z" fill="url(#paint105_linear_906_3922)"/>
<path d="M82.264 252.847C82.264 253.653 81.6109 254.306 80.8053 254.306C79.9997 254.306 79.3466 253.653 79.3466 252.847C79.3466 252.041 79.9997 251.388 80.8053 251.388C81.6109 251.388 82.264 252.041 82.264 252.847Z" fill="url(#paint106_linear_906_3922)"/>
<path d="M111.438 252.847C111.438 253.653 110.784 254.306 109.979 254.306C109.173 254.306 108.52 253.653 108.52 252.847C108.52 252.041 109.173 251.388 109.979 251.388C110.784 251.388 111.438 252.041 111.438 252.847Z" fill="url(#paint107_linear_906_3922)"/>
<path d="M140.611 252.847C140.611 253.653 139.958 254.306 139.152 254.306C138.347 254.306 137.694 253.653 137.694 252.847C137.694 252.041 138.347 251.388 139.152 251.388C139.958 251.388 140.611 252.041 140.611 252.847Z" fill="url(#paint108_linear_906_3922)"/>
<path d="M169.785 252.847C169.785 253.653 169.132 254.306 168.326 254.306C167.52 254.306 166.867 253.653 166.867 252.847C166.867 252.041 167.52 251.388 168.326 251.388C169.132 251.388 169.785 252.041 169.785 252.847Z" fill="url(#paint109_linear_906_3922)"/>
<path d="M198.958 252.847C198.958 253.653 198.305 254.306 197.499 254.306C196.694 254.306 196.041 253.653 196.041 252.847C196.041 252.041 196.694 251.388 197.499 251.388C198.305 251.388 198.958 252.041 198.958 252.847Z" fill="url(#paint110_linear_906_3922)"/>
<path d="M228.132 252.847C228.132 253.653 227.479 254.306 226.673 254.306C225.867 254.306 225.214 253.653 225.214 252.847C225.214 252.041 225.867 251.388 226.673 251.388C227.479 251.388 228.132 252.041 228.132 252.847Z" fill="url(#paint111_linear_906_3922)"/>
<path d="M257.305 252.847C257.305 253.653 256.652 254.306 255.847 254.306C255.041 254.306 254.388 253.653 254.388 252.847C254.388 252.041 255.041 251.388 255.847 251.388C256.652 251.388 257.305 252.041 257.305 252.847Z" fill="url(#paint112_linear_906_3922)"/>
<path d="M286.479 252.847C286.479 253.653 285.826 254.306 285.02 254.306C284.215 254.306 283.561 253.653 283.561 252.847C283.561 252.041 284.215 251.388 285.02 251.388C285.826 251.388 286.479 252.041 286.479 252.847Z" fill="url(#paint113_linear_906_3922)"/>
<path d="M315.652 252.847C315.652 253.653 314.999 254.306 314.194 254.306C313.388 254.306 312.735 253.653 312.735 252.847C312.735 252.041 313.388 251.388 314.194 251.388C314.999 251.388 315.652 252.041 315.652 252.847Z" fill="url(#paint114_linear_906_3922)"/>
<path d="M344.826 252.847C344.826 253.653 344.173 254.306 343.367 254.306C342.562 254.306 341.909 253.653 341.909 252.847C341.909 252.041 342.562 251.388 343.367 251.388C344.173 251.388 344.826 252.041 344.826 252.847Z" fill="url(#paint115_linear_906_3922)"/>
<path d="M373.999 252.847C373.999 253.653 373.346 254.306 372.541 254.306C371.735 254.306 371.082 253.653 371.082 252.847C371.082 252.041 371.735 251.388 372.541 251.388C373.346 251.388 373.999 252.041 373.999 252.847Z" fill="url(#paint116_linear_906_3922)"/>
<path d="M23.9169 282.021C23.9169 282.826 23.2638 283.479 22.4582 283.479C21.6526 283.479 20.9995 282.826 20.9995 282.021C20.9995 281.215 21.6526 280.562 22.4582 280.562C23.2638 280.562 23.9169 281.215 23.9169 282.021Z" fill="url(#paint117_linear_906_3922)"/>
<path d="M53.0904 282.021C53.0904 282.826 52.4373 283.479 51.6317 283.479C50.8261 283.479 50.1731 282.826 50.1731 282.021C50.1731 281.215 50.8261 280.562 51.6317 280.562C52.4373 280.562 53.0904 281.215 53.0904 282.021Z" fill="url(#paint118_linear_906_3922)"/>
<path d="M82.264 282.021C82.264 282.826 81.6109 283.479 80.8053 283.479C79.9997 283.479 79.3466 282.826 79.3466 282.021C79.3466 281.215 79.9997 280.562 80.8053 280.562C81.6109 280.562 82.264 281.215 82.264 282.021Z" fill="url(#paint119_linear_906_3922)"/>
<path d="M111.438 282.021C111.438 282.826 110.784 283.479 109.979 283.479C109.173 283.479 108.52 282.826 108.52 282.021C108.52 281.215 109.173 280.562 109.979 280.562C110.784 280.562 111.438 281.215 111.438 282.021Z" fill="url(#paint120_linear_906_3922)"/>
<path d="M140.611 282.021C140.611 282.826 139.958 283.479 139.152 283.479C138.347 283.479 137.694 282.826 137.694 282.021C137.694 281.215 138.347 280.562 139.152 280.562C139.958 280.562 140.611 281.215 140.611 282.021Z" fill="url(#paint121_linear_906_3922)"/>
<path d="M169.785 282.021C169.785 282.826 169.132 283.479 168.326 283.479C167.52 283.479 166.867 282.826 166.867 282.021C166.867 281.215 167.52 280.562 168.326 280.562C169.132 280.562 169.785 281.215 169.785 282.021Z" fill="url(#paint122_linear_906_3922)"/>
<path d="M198.958 282.021C198.958 282.826 198.305 283.479 197.499 283.479C196.694 283.479 196.041 282.826 196.041 282.021C196.041 281.215 196.694 280.562 197.499 280.562C198.305 280.562 198.958 281.215 198.958 282.021Z" fill="url(#paint123_linear_906_3922)"/>
<path d="M228.132 282.021C228.132 282.826 227.479 283.479 226.673 283.479C225.867 283.479 225.214 282.826 225.214 282.021C225.214 281.215 225.867 280.562 226.673 280.562C227.479 280.562 228.132 281.215 228.132 282.021Z" fill="url(#paint124_linear_906_3922)"/>
<path d="M257.305 282.021C257.305 282.826 256.652 283.479 255.847 283.479C255.041 283.479 254.388 282.826 254.388 282.021C254.388 281.215 255.041 280.562 255.847 280.562C256.652 280.562 257.305 281.215 257.305 282.021Z" fill="url(#paint125_linear_906_3922)"/>
<path d="M286.479 282.021C286.479 282.826 285.826 283.479 285.02 283.479C284.215 283.479 283.561 282.826 283.561 282.021C283.561 281.215 284.215 280.562 285.02 280.562C285.826 280.562 286.479 281.215 286.479 282.021Z" fill="url(#paint126_linear_906_3922)"/>
<path d="M315.652 282.021C315.652 282.826 314.999 283.479 314.194 283.479C313.388 283.479 312.735 282.826 312.735 282.021C312.735 281.215 313.388 280.562 314.194 280.562C314.999 280.562 315.652 281.215 315.652 282.021Z" fill="url(#paint127_linear_906_3922)"/>
<path d="M344.826 282.021C344.826 282.826 344.173 283.479 343.367 283.479C342.562 283.479 341.909 282.826 341.909 282.021C341.909 281.215 342.562 280.562 343.367 280.562C344.173 280.562 344.826 281.215 344.826 282.021Z" fill="url(#paint128_linear_906_3922)"/>
<path d="M373.999 282.021C373.999 282.826 373.346 283.479 372.541 283.479C371.735 283.479 371.082 282.826 371.082 282.021C371.082 281.215 371.735 280.562 372.541 280.562C373.346 280.562 373.999 281.215 373.999 282.021Z" fill="url(#paint129_linear_906_3922)"/>
<path d="M23.0905 19.4587C23.0905 20.2643 22.4374 20.9174 21.6318 20.9174C20.8262 20.9174 20.1731 20.2643 20.1731 19.4587C20.1731 18.6531 20.8262 18 21.6318 18C22.4374 18 23.0905 18.6531 23.0905 19.4587Z" fill="url(#paint130_linear_906_3922)"/>
<g filter="url(#filter0_d_906_3922)">
<rect x="32" y="113" width="141" height="75" rx="5" fill="white"/>
<rect x="32.5" y="113.5" width="140" height="74" rx="4.5" stroke="#DAE2DE"/>
</g>
<rect x="110" y="124" width="54" height="54" rx="5" fill="url(#paint131_linear_906_3922)"/>
<path d="M135.417 142.774V144.583C135.417 144.905 135.678 145.167 136 145.167C136.322 145.167 136.583 144.905 136.583 144.583V142.774C137.913 142.503 138.917 141.325 138.917 139.917C138.917 138.308 137.609 137 136 137C134.391 137 133.083 138.308 133.083 139.917C133.083 141.326 134.087 142.503 135.417 142.774ZM136 138.167C136.965 138.167 137.75 138.952 137.75 139.917C137.75 140.882 136.965 141.667 136 141.667C135.035 141.667 134.25 140.882 134.25 139.917C134.25 138.952 135.035 138.167 136 138.167ZM148.833 164.417C148.833 164.739 148.572 165 148.25 165C147.928 165 147.667 164.739 147.667 164.417C147.667 162.507 146.507 160.886 144.638 160.185L138.145 157.97C137.909 157.889 137.75 157.666 137.75 157.417V150.542C137.75 149.621 137.126 148.825 136.299 148.69C135.772 148.608 135.265 148.744 134.867 149.082C134.474 149.416 134.25 149.902 134.25 150.417V160.245C134.25 160.736 133.976 161.173 133.532 161.387C133.09 161.597 132.577 161.541 132.195 161.235C132.195 161.235 130.193 159.64 130.19 159.636C129.483 158.98 128.378 159.018 127.722 159.721C127.063 160.425 127.099 161.537 127.797 162.192L129.702 164.001C130.081 164.362 129.827 165 129.303 165C129.155 165 129.013 164.944 128.905 164.842L126.992 163.036C125.825 161.943 125.769 160.099 126.868 158.925C127.951 157.765 129.764 157.695 130.94 158.751C130.944 158.754 132.921 160.323 132.921 160.323L133.082 160.246V150.418C133.082 149.561 133.457 148.751 134.11 148.195C134.764 147.64 135.635 147.402 136.484 147.541C137.87 147.766 138.915 149.057 138.915 150.543V157L145.03 159.087C147.382 159.969 148.833 162.009 148.833 164.417ZM140.756 147.844C140.87 147.844 140.982 147.813 141.081 147.745L142.702 146.656C143.23 147.177 143.952 147.5 144.75 147.5C146.359 147.5 147.667 146.192 147.667 144.583C147.667 142.974 146.359 141.667 144.75 141.667C143.141 141.667 141.833 142.974 141.833 144.583C141.833 144.975 141.914 145.347 142.054 145.688L140.432 146.777C140.165 146.955 140.093 147.318 140.272 147.585C140.385 147.754 140.57 147.844 140.756 147.844ZM144.75 142.833C145.715 142.833 146.5 143.618 146.5 144.583C146.5 145.548 145.715 146.333 144.75 146.333C143.707 146.333 143 145.626 143 144.583C143 143.618 143.785 142.833 144.75 142.833ZM129.297 146.656L130.919 147.745C131.018 147.813 131.131 147.844 131.243 147.844C131.43 147.844 131.614 147.754 131.728 147.585C131.907 147.318 131.836 146.955 131.568 146.777L129.946 145.688C130.086 145.346 130.167 144.974 130.167 144.583C130.167 142.974 128.859 141.667 127.25 141.667C125.641 141.667 124.333 142.974 124.333 144.583C124.333 146.192 125.641 147.5 127.25 147.5C128.048 147.5 128.77 147.177 129.297 146.656ZM125.5 144.583C125.5 143.618 126.285 142.833 127.25 142.833C128.215 142.833 129 143.618 129 144.583C129 145.447 128.551 146.333 127.25 146.333C126.285 146.333 125.5 145.548 125.5 144.583Z" fill="white"/>
<g filter="url(#filter1_i_906_3922)">
<path d="M62.8262 159V142.9H65.3562V159H62.8262Z" fill="#4E504E"/>
<path d="M67.9408 159V142.9H78.1068V144.947H70.4708V149.915H76.7958V151.939H70.4708V159H67.9408Z" fill="#4E504E"/>
</g>
<g filter="url(#filter2_d_906_3922)">
<rect x="220" y="113" width="141" height="75" rx="5" fill="white"/>
<rect x="220.5" y="113.5" width="140" height="74" rx="4.5" stroke="#DAE2DE"/>
</g>
<rect x="297" y="124" width="54" height="54" rx="5" fill="url(#paint132_linear_906_3922)"/>
<g clip-path="url(#clip0_906_3922)">
<path d="M336 147V141C336 139.897 335.103 139 334 139H328V140H334C334.033 140 334.06 140.016 334.092 140.019L323.921 150.189L313.777 140.045C313.851 140.028 313.921 140 314 140H320V139H314C312.897 139 312 139.897 312 141V147H313V141C313 140.906 313.029 140.822 313.054 140.736L323.214 150.896L313.019 161.092C313.016 161.06 313 161.033 313 161V155H312V161C312 162.103 312.897 163 314 163H320V162H314C313.86 162 313.728 161.97 313.607 161.918L323.921 151.604L334.264 161.947C334.178 161.971 334.093 162 334 162H328V163H334C335.103 163 336 162.103 336 161V155H335V161C335 161.079 334.972 161.149 334.955 161.223L324.628 150.896L334.918 140.607C334.97 140.728 335 140.861 335 141V147H336Z" fill="white"/>
</g>
<line x1="175" y1="151" x2="215" y2="151" stroke="#BEC4C1" stroke-width="2"/>
<path d="M208 143.795L216.346 151.346L208 158.5" stroke="#BEC4C1" stroke-width="2" stroke-linecap="round" stroke-linejoin="round"/>
<g filter="url(#filter3_i_906_3922)">
<path d="M240.481 157V144.169H236.134V142.3H247.117V144.169H242.791V157H240.481Z" fill="#4E504E"/>
<path d="M257.972 157V142.3H260.282V157H257.972ZM248.627 157V142.3H250.937V157H248.627ZM250.58 150.448V148.558H258.413V150.448H250.58Z" fill="#4E504E"/>
<path d="M262.294 157V142.3H271.66V144.169H264.604V148.642H271.03V150.49H264.604V155.131H271.66V157H262.294Z" fill="#4E504E"/>
<path d="M273.32 157V142.3H275.63L282.917 153.241V142.3H285.227V157H282.917L275.63 146.08V157H273.32Z" fill="#4E504E"/>
</g>
<defs>
<filter id="filter0_d_906_3922" x="28" y="113" width="149" height="83" filterUnits="userSpaceOnUse" color-interpolation-filters="sRGB">
<feFlood flood-opacity="0" result="BackgroundImageFix"/>
<feColorMatrix in="SourceAlpha" type="matrix" values="0 0 0 0 0 0 0 0 0 0 0 0 0 0 0 0 0 0 127 0" result="hardAlpha"/>
<feOffset dy="4"/>
<feGaussianBlur stdDeviation="2"/>
<feComposite in2="hardAlpha" operator="out"/>
<feColorMatrix type="matrix" values="0 0 0 0 0 0 0 0 0 0 0 0 0 0 0 0 0 0 0.04 0"/>
<feBlend mode="normal" in2="BackgroundImageFix" result="effect1_dropShadow_906_3922"/>
<feBlend mode="normal" in="SourceGraphic" in2="effect1_dropShadow_906_3922" result="shape"/>
</filter>
<filter id="filter1_i_906_3922" x="62.8262" y="142.9" width="15.2806" height="16.1" filterUnits="userSpaceOnUse" color-interpolation-filters="sRGB">
<feFlood flood-opacity="0" result="BackgroundImageFix"/>
<feBlend mode="normal" in="SourceGraphic" in2="BackgroundImageFix" result="shape"/>
<feColorMatrix in="SourceAlpha" type="matrix" values="0 0 0 0 0 0 0 0 0 0 0 0 0 0 0 0 0 0 127 0" result="hardAlpha"/>
<feOffset/>
<feGaussianBlur stdDeviation="3"/>
<feComposite in2="hardAlpha" operator="arithmetic" k2="-1" k3="1"/>
<feColorMatrix type="matrix" values="0 0 0 0 0 0 0 0 0 0 0 0 0 0 0 0 0 0 0.25 0"/>
<feBlend mode="normal" in2="shape" result="effect1_innerShadow_906_3922"/>
</filter>
<filter id="filter2_d_906_3922" x="216" y="113" width="149" height="83" filterUnits="userSpaceOnUse" color-interpolation-filters="sRGB">
<feFlood flood-opacity="0" result="BackgroundImageFix"/>
<feColorMatrix in="SourceAlpha" type="matrix" values="0 0 0 0 0 0 0 0 0 0 0 0 0 0 0 0 0 0 127 0" result="hardAlpha"/>
<feOffset dy="4"/>
<feGaussianBlur stdDeviation="2"/>
<feComposite in2="hardAlpha" operator="out"/>
<feColorMatrix type="matrix" values="0 0 0 0 0 0 0 0 0 0 0 0 0 0 0 0 0 0 0.04 0"/>
<feBlend mode="normal" in2="BackgroundImageFix" result="effect1_dropShadow_906_3922"/>
<feBlend mode="normal" in="SourceGraphic" in2="effect1_dropShadow_906_3922" result="shape"/>
</filter>
<filter id="filter3_i_906_3922" x="236.134" y="142.3" width="49.0934" height="14.7" filterUnits="userSpaceOnUse" color-interpolation-filters="sRGB">
<feFlood flood-opacity="0" result="BackgroundImageFix"/>
<feBlend mode="normal" in="SourceGraphic" in2="BackgroundImageFix" result="shape"/>
<feColorMatrix in="SourceAlpha" type="matrix" values="0 0 0 0 0 0 0 0 0 0 0 0 0 0 0 0 0 0 127 0" result="hardAlpha"/>
<feOffset/>
<feGaussianBlur stdDeviation="3"/>
<feComposite in2="hardAlpha" operator="arithmetic" k2="-1" k3="1"/>
<feColorMatrix type="matrix" values="0 0 0 0 0 0 0 0 0 0 0 0 0 0 0 0 0 0 0.25 0"/>
<feBlend mode="normal" in2="shape" result="effect1_innerShadow_906_3922"/>
</filter>
<linearGradient id="paint0_linear_906_3922" x1="196" y1="0" x2="196" y2="300" gradientUnits="userSpaceOnUse">
<stop stop-color="#EFF3F1"/>
<stop offset="1" stop-color="#F8FBF8"/>
</linearGradient>
<linearGradient id="paint1_linear_906_3922" x1="197.499" y1="18" x2="197" y2="309" gradientUnits="userSpaceOnUse">
<stop stop-color="#DAE2DE"/>
<stop offset="1" stop-color="#EEF1ED"/>
</linearGradient>
<linearGradient id="paint2_linear_906_3922" x1="197.499" y1="18" x2="197" y2="309" gradientUnits="userSpaceOnUse">
<stop stop-color="#DAE2DE"/>
<stop offset="1" stop-color="#EEF1ED"/>
</linearGradient>
<linearGradient id="paint3_linear_906_3922" x1="197.499" y1="18" x2="197" y2="309" gradientUnits="userSpaceOnUse">
<stop stop-color="#DAE2DE"/>
<stop offset="1" stop-color="#EEF1ED"/>
</linearGradient>
<linearGradient id="paint4_linear_906_3922" x1="197.499" y1="18" x2="197" y2="309" gradientUnits="userSpaceOnUse">
<stop stop-color="#DAE2DE"/>
<stop offset="1" stop-color="#EEF1ED"/>
</linearGradient>
<linearGradient id="paint5_linear_906_3922" x1="197.499" y1="18" x2="197" y2="309" gradientUnits="userSpaceOnUse">
<stop stop-color="#DAE2DE"/>
<stop offset="1" stop-color="#EEF1ED"/>
</linearGradient>
<linearGradient id="paint6_linear_906_3922" x1="197.499" y1="18" x2="197" y2="309" gradientUnits="userSpaceOnUse">
<stop stop-color="#DAE2DE"/>
<stop offset="1" stop-color="#EEF1ED"/>
</linearGradient>
<linearGradient id="paint7_linear_906_3922" x1="197.499" y1="18" x2="197" y2="309" gradientUnits="userSpaceOnUse">
<stop stop-color="#DAE2DE"/>
<stop offset="1" stop-color="#EEF1ED"/>
</linearGradient>
<linearGradient id="paint8_linear_906_3922" x1="197.499" y1="18" x2="197" y2="309" gradientUnits="userSpaceOnUse">
<stop stop-color="#DAE2DE"/>
<stop offset="1" stop-color="#EEF1ED"/>
</linearGradient>
<linearGradient id="paint9_linear_906_3922" x1="197.499" y1="18" x2="197" y2="309" gradientUnits="userSpaceOnUse">
<stop stop-color="#DAE2DE"/>
<stop offset="1" stop-color="#EEF1ED"/>
</linearGradient>
<linearGradient id="paint10_linear_906_3922" x1="197.499" y1="18" x2="197" y2="309" gradientUnits="userSpaceOnUse">
<stop stop-color="#DAE2DE"/>
<stop offset="1" stop-color="#EEF1ED"/>
</linearGradient>
<linearGradient id="paint11_linear_906_3922" x1="197.499" y1="18" x2="197" y2="309" gradientUnits="userSpaceOnUse">
<stop stop-color="#DAE2DE"/>
<stop offset="1" stop-color="#EEF1ED"/>
</linearGradient>
<linearGradient id="paint12_linear_906_3922" x1="197.499" y1="18" x2="197" y2="309" gradientUnits="userSpaceOnUse">
<stop stop-color="#DAE2DE"/>
<stop offset="1" stop-color="#EEF1ED"/>
</linearGradient>
<linearGradient id="paint13_linear_906_3922" x1="197.499" y1="18" x2="197" y2="309" gradientUnits="userSpaceOnUse">
<stop stop-color="#DAE2DE"/>
<stop offset="1" stop-color="#EEF1ED"/>
</linearGradient>
<linearGradient id="paint14_linear_906_3922" x1="197.499" y1="18" x2="197" y2="309" gradientUnits="userSpaceOnUse">
<stop stop-color="#DAE2DE"/>
<stop offset="1" stop-color="#EEF1ED"/>
</linearGradient>
<linearGradient id="paint15_linear_906_3922" x1="197.499" y1="18" x2="197" y2="309" gradientUnits="userSpaceOnUse">
<stop stop-color="#DAE2DE"/>
<stop offset="1" stop-color="#EEF1ED"/>
</linearGradient>
<linearGradient id="paint16_linear_906_3922" x1="197.499" y1="18" x2="197" y2="309" gradientUnits="userSpaceOnUse">
<stop stop-color="#DAE2DE"/>
<stop offset="1" stop-color="#EEF1ED"/>
</linearGradient>
<linearGradient id="paint17_linear_906_3922" x1="197.499" y1="18" x2="197" y2="309" gradientUnits="userSpaceOnUse">
<stop stop-color="#DAE2DE"/>
<stop offset="1" stop-color="#EEF1ED"/>
</linearGradient>
<linearGradient id="paint18_linear_906_3922" x1="197.499" y1="18" x2="197" y2="309" gradientUnits="userSpaceOnUse">
<stop stop-color="#DAE2DE"/>
<stop offset="1" stop-color="#EEF1ED"/>
</linearGradient>
<linearGradient id="paint19_linear_906_3922" x1="197.499" y1="18" x2="197" y2="309" gradientUnits="userSpaceOnUse">
<stop stop-color="#DAE2DE"/>
<stop offset="1" stop-color="#EEF1ED"/>
</linearGradient>
<linearGradient id="paint20_linear_906_3922" x1="197.499" y1="18" x2="197" y2="309" gradientUnits="userSpaceOnUse">
<stop stop-color="#DAE2DE"/>
<stop offset="1" stop-color="#EEF1ED"/>
</linearGradient>
<linearGradient id="paint21_linear_906_3922" x1="197.499" y1="18" x2="197" y2="309" gradientUnits="userSpaceOnUse">
<stop stop-color="#DAE2DE"/>
<stop offset="1" stop-color="#EEF1ED"/>
</linearGradient>
<linearGradient id="paint22_linear_906_3922" x1="197.499" y1="18" x2="197" y2="309" gradientUnits="userSpaceOnUse">
<stop stop-color="#DAE2DE"/>
<stop offset="1" stop-color="#EEF1ED"/>
</linearGradient>
<linearGradient id="paint23_linear_906_3922" x1="197.499" y1="18" x2="197" y2="309" gradientUnits="userSpaceOnUse">
<stop stop-color="#DAE2DE"/>
<stop offset="1" stop-color="#EEF1ED"/>
</linearGradient>
<linearGradient id="paint24_linear_906_3922" x1="197.499" y1="18" x2="197" y2="309" gradientUnits="userSpaceOnUse">
<stop stop-color="#DAE2DE"/>
<stop offset="1" stop-color="#EEF1ED"/>
</linearGradient>
<linearGradient id="paint25_linear_906_3922" x1="197.499" y1="18" x2="197" y2="309" gradientUnits="userSpaceOnUse">
<stop stop-color="#DAE2DE"/>
<stop offset="1" stop-color="#EEF1ED"/>
</linearGradient>
<linearGradient id="paint26_linear_906_3922" x1="197.499" y1="18" x2="197" y2="309" gradientUnits="userSpaceOnUse">
<stop stop-color="#DAE2DE"/>
<stop offset="1" stop-color="#EEF1ED"/>
</linearGradient>
<linearGradient id="paint27_linear_906_3922" x1="197.499" y1="18" x2="197" y2="309" gradientUnits="userSpaceOnUse">
<stop stop-color="#DAE2DE"/>
<stop offset="1" stop-color="#EEF1ED"/>
</linearGradient>
<linearGradient id="paint28_linear_906_3922" x1="197.499" y1="18" x2="197" y2="309" gradientUnits="userSpaceOnUse">
<stop stop-color="#DAE2DE"/>
<stop offset="1" stop-color="#EEF1ED"/>
</linearGradient>
<linearGradient id="paint29_linear_906_3922" x1="197.499" y1="18" x2="197" y2="309" gradientUnits="userSpaceOnUse">
<stop stop-color="#DAE2DE"/>
<stop offset="1" stop-color="#EEF1ED"/>
</linearGradient>
<linearGradient id="paint30_linear_906_3922" x1="197.499" y1="18" x2="197" y2="309" gradientUnits="userSpaceOnUse">
<stop stop-color="#DAE2DE"/>
<stop offset="1" stop-color="#EEF1ED"/>
</linearGradient>
<linearGradient id="paint31_linear_906_3922" x1="197.499" y1="18" x2="197" y2="309" gradientUnits="userSpaceOnUse">
<stop stop-color="#DAE2DE"/>
<stop offset="1" stop-color="#EEF1ED"/>
</linearGradient>
<linearGradient id="paint32_linear_906_3922" x1="197.499" y1="18" x2="197" y2="309" gradientUnits="userSpaceOnUse">
<stop stop-color="#DAE2DE"/>
<stop offset="1" stop-color="#EEF1ED"/>
</linearGradient>
<linearGradient id="paint33_linear_906_3922" x1="197.499" y1="18" x2="197" y2="309" gradientUnits="userSpaceOnUse">
<stop stop-color="#DAE2DE"/>
<stop offset="1" stop-color="#EEF1ED"/>
</linearGradient>
<linearGradient id="paint34_linear_906_3922" x1="197.499" y1="18" x2="197" y2="309" gradientUnits="userSpaceOnUse">
<stop stop-color="#DAE2DE"/>
<stop offset="1" stop-color="#EEF1ED"/>
</linearGradient>
<linearGradient id="paint35_linear_906_3922" x1="197.499" y1="18" x2="197" y2="309" gradientUnits="userSpaceOnUse">
<stop stop-color="#DAE2DE"/>
<stop offset="1" stop-color="#EEF1ED"/>
</linearGradient>
<linearGradient id="paint36_linear_906_3922" x1="197.499" y1="18" x2="197" y2="309" gradientUnits="userSpaceOnUse">
<stop stop-color="#DAE2DE"/>
<stop offset="1" stop-color="#EEF1ED"/>
</linearGradient>
<linearGradient id="paint37_linear_906_3922" x1="197.499" y1="18" x2="197" y2="309" gradientUnits="userSpaceOnUse">
<stop stop-color="#DAE2DE"/>
<stop offset="1" stop-color="#EEF1ED"/>
</linearGradient>
<linearGradient id="paint38_linear_906_3922" x1="197.499" y1="18" x2="197" y2="309" gradientUnits="userSpaceOnUse">
<stop stop-color="#DAE2DE"/>
<stop offset="1" stop-color="#EEF1ED"/>
</linearGradient>
<linearGradient id="paint39_linear_906_3922" x1="197.499" y1="18" x2="197" y2="309" gradientUnits="userSpaceOnUse">
<stop stop-color="#DAE2DE"/>
<stop offset="1" stop-color="#EEF1ED"/>
</linearGradient>
<linearGradient id="paint40_linear_906_3922" x1="197.499" y1="18" x2="197" y2="309" gradientUnits="userSpaceOnUse">
<stop stop-color="#DAE2DE"/>
<stop offset="1" stop-color="#EEF1ED"/>
</linearGradient>
<linearGradient id="paint41_linear_906_3922" x1="197.499" y1="18" x2="197" y2="309" gradientUnits="userSpaceOnUse">
<stop stop-color="#DAE2DE"/>
<stop offset="1" stop-color="#EEF1ED"/>
</linearGradient>
<linearGradient id="paint42_linear_906_3922" x1="197.499" y1="18" x2="197" y2="309" gradientUnits="userSpaceOnUse">
<stop stop-color="#DAE2DE"/>
<stop offset="1" stop-color="#EEF1ED"/>
</linearGradient>
<linearGradient id="paint43_linear_906_3922" x1="197.499" y1="18" x2="197" y2="309" gradientUnits="userSpaceOnUse">
<stop stop-color="#DAE2DE"/>
<stop offset="1" stop-color="#EEF1ED"/>
</linearGradient>
<linearGradient id="paint44_linear_906_3922" x1="197.499" y1="18" x2="197" y2="309" gradientUnits="userSpaceOnUse">
<stop stop-color="#DAE2DE"/>
<stop offset="1" stop-color="#EEF1ED"/>
</linearGradient>
<linearGradient id="paint45_linear_906_3922" x1="197.499" y1="18" x2="197" y2="309" gradientUnits="userSpaceOnUse">
<stop stop-color="#DAE2DE"/>
<stop offset="1" stop-color="#EEF1ED"/>
</linearGradient>
<linearGradient id="paint46_linear_906_3922" x1="197.499" y1="18" x2="197" y2="309" gradientUnits="userSpaceOnUse">
<stop stop-color="#DAE2DE"/>
<stop offset="1" stop-color="#EEF1ED"/>
</linearGradient>
<linearGradient id="paint47_linear_906_3922" x1="197.499" y1="18" x2="197" y2="309" gradientUnits="userSpaceOnUse">
<stop stop-color="#DAE2DE"/>
<stop offset="1" stop-color="#EEF1ED"/>
</linearGradient>
<linearGradient id="paint48_linear_906_3922" x1="197.499" y1="18" x2="197" y2="309" gradientUnits="userSpaceOnUse">
<stop stop-color="#DAE2DE"/>
<stop offset="1" stop-color="#EEF1ED"/>
</linearGradient>
<linearGradient id="paint49_linear_906_3922" x1="197.499" y1="18" x2="197" y2="309" gradientUnits="userSpaceOnUse">
<stop stop-color="#DAE2DE"/>
<stop offset="1" stop-color="#EEF1ED"/>
</linearGradient>
<linearGradient id="paint50_linear_906_3922" x1="197.499" y1="18" x2="197" y2="309" gradientUnits="userSpaceOnUse">
<stop stop-color="#DAE2DE"/>
<stop offset="1" stop-color="#EEF1ED"/>
</linearGradient>
<linearGradient id="paint51_linear_906_3922" x1="197.499" y1="18" x2="197" y2="309" gradientUnits="userSpaceOnUse">
<stop stop-color="#DAE2DE"/>
<stop offset="1" stop-color="#EEF1ED"/>
</linearGradient>
<linearGradient id="paint52_linear_906_3922" x1="197.499" y1="18" x2="197" y2="309" gradientUnits="userSpaceOnUse">
<stop stop-color="#DAE2DE"/>
<stop offset="1" stop-color="#EEF1ED"/>
</linearGradient>
<linearGradient id="paint53_linear_906_3922" x1="197.499" y1="18" x2="197" y2="309" gradientUnits="userSpaceOnUse">
<stop stop-color="#DAE2DE"/>
<stop offset="1" stop-color="#EEF1ED"/>
</linearGradient>
<linearGradient id="paint54_linear_906_3922" x1="197.499" y1="18" x2="197" y2="309" gradientUnits="userSpaceOnUse">
<stop stop-color="#DAE2DE"/>
<stop offset="1" stop-color="#EEF1ED"/>
</linearGradient>
<linearGradient id="paint55_linear_906_3922" x1="197.499" y1="18" x2="197" y2="309" gradientUnits="userSpaceOnUse">
<stop stop-color="#DAE2DE"/>
<stop offset="1" stop-color="#EEF1ED"/>
</linearGradient>
<linearGradient id="paint56_linear_906_3922" x1="197.499" y1="18" x2="197" y2="309" gradientUnits="userSpaceOnUse">
<stop stop-color="#DAE2DE"/>
<stop offset="1" stop-color="#EEF1ED"/>
</linearGradient>
<linearGradient id="paint57_linear_906_3922" x1="197.499" y1="18" x2="197" y2="309" gradientUnits="userSpaceOnUse">
<stop stop-color="#DAE2DE"/>
<stop offset="1" stop-color="#EEF1ED"/>
</linearGradient>
<linearGradient id="paint58_linear_906_3922" x1="197.499" y1="18" x2="197" y2="309" gradientUnits="userSpaceOnUse">
<stop stop-color="#DAE2DE"/>
<stop offset="1" stop-color="#EEF1ED"/>
</linearGradient>
<linearGradient id="paint59_linear_906_3922" x1="197.499" y1="18" x2="197" y2="309" gradientUnits="userSpaceOnUse">
<stop stop-color="#DAE2DE"/>
<stop offset="1" stop-color="#EEF1ED"/>
</linearGradient>
<linearGradient id="paint60_linear_906_3922" x1="197.499" y1="18" x2="197" y2="309" gradientUnits="userSpaceOnUse">
<stop stop-color="#DAE2DE"/>
<stop offset="1" stop-color="#EEF1ED"/>
</linearGradient>
<linearGradient id="paint61_linear_906_3922" x1="197.499" y1="18" x2="197" y2="309" gradientUnits="userSpaceOnUse">
<stop stop-color="#DAE2DE"/>
<stop offset="1" stop-color="#EEF1ED"/>
</linearGradient>
<linearGradient id="paint62_linear_906_3922" x1="197.499" y1="18" x2="197" y2="309" gradientUnits="userSpaceOnUse">
<stop stop-color="#DAE2DE"/>
<stop offset="1" stop-color="#EEF1ED"/>
</linearGradient>
<linearGradient id="paint63_linear_906_3922" x1="197.499" y1="18" x2="197" y2="309" gradientUnits="userSpaceOnUse">
<stop stop-color="#DAE2DE"/>
<stop offset="1" stop-color="#EEF1ED"/>
</linearGradient>
<linearGradient id="paint64_linear_906_3922" x1="197.499" y1="18" x2="197" y2="309" gradientUnits="userSpaceOnUse">
<stop stop-color="#DAE2DE"/>
<stop offset="1" stop-color="#EEF1ED"/>
</linearGradient>
<linearGradient id="paint65_linear_906_3922" x1="197.499" y1="18" x2="197" y2="309" gradientUnits="userSpaceOnUse">
<stop stop-color="#DAE2DE"/>
<stop offset="1" stop-color="#EEF1ED"/>
</linearGradient>
<linearGradient id="paint66_linear_906_3922" x1="197.499" y1="18" x2="197" y2="309" gradientUnits="userSpaceOnUse">
<stop stop-color="#DAE2DE"/>
<stop offset="1" stop-color="#EEF1ED"/>
</linearGradient>
<linearGradient id="paint67_linear_906_3922" x1="197.499" y1="18" x2="197" y2="309" gradientUnits="userSpaceOnUse">
<stop stop-color="#DAE2DE"/>
<stop offset="1" stop-color="#EEF1ED"/>
</linearGradient>
<linearGradient id="paint68_linear_906_3922" x1="197.499" y1="18" x2="197" y2="309" gradientUnits="userSpaceOnUse">
<stop stop-color="#DAE2DE"/>
<stop offset="1" stop-color="#EEF1ED"/>
</linearGradient>
<linearGradient id="paint69_linear_906_3922" x1="197.499" y1="18" x2="197" y2="309" gradientUnits="userSpaceOnUse">
<stop stop-color="#DAE2DE"/>
<stop offset="1" stop-color="#EEF1ED"/>
</linearGradient>
<linearGradient id="paint70_linear_906_3922" x1="197.499" y1="18" x2="197" y2="309" gradientUnits="userSpaceOnUse">
<stop stop-color="#DAE2DE"/>
<stop offset="1" stop-color="#EEF1ED"/>
</linearGradient>
<linearGradient id="paint71_linear_906_3922" x1="197.499" y1="18" x2="197" y2="309" gradientUnits="userSpaceOnUse">
<stop stop-color="#DAE2DE"/>
<stop offset="1" stop-color="#EEF1ED"/>
</linearGradient>
<linearGradient id="paint72_linear_906_3922" x1="197.499" y1="18" x2="197" y2="309" gradientUnits="userSpaceOnUse">
<stop stop-color="#DAE2DE"/>
<stop offset="1" stop-color="#EEF1ED"/>
</linearGradient>
<linearGradient id="paint73_linear_906_3922" x1="197.499" y1="18" x2="197" y2="309" gradientUnits="userSpaceOnUse">
<stop stop-color="#DAE2DE"/>
<stop offset="1" stop-color="#EEF1ED"/>
</linearGradient>
<linearGradient id="paint74_linear_906_3922" x1="197.499" y1="18" x2="197" y2="309" gradientUnits="userSpaceOnUse">
<stop stop-color="#DAE2DE"/>
<stop offset="1" stop-color="#EEF1ED"/>
</linearGradient>
<linearGradient id="paint75_linear_906_3922" x1="197.499" y1="18" x2="197" y2="309" gradientUnits="userSpaceOnUse">
<stop stop-color="#DAE2DE"/>
<stop offset="1" stop-color="#EEF1ED"/>
</linearGradient>
<linearGradient id="paint76_linear_906_3922" x1="197.499" y1="18" x2="197" y2="309" gradientUnits="userSpaceOnUse">
<stop stop-color="#DAE2DE"/>
<stop offset="1" stop-color="#EEF1ED"/>
</linearGradient>
<linearGradient id="paint77_linear_906_3922" x1="197.499" y1="18" x2="197" y2="309" gradientUnits="userSpaceOnUse">
<stop stop-color="#DAE2DE"/>
<stop offset="1" stop-color="#EEF1ED"/>
</linearGradient>
<linearGradient id="paint78_linear_906_3922" x1="197.499" y1="18" x2="197" y2="309" gradientUnits="userSpaceOnUse">
<stop stop-color="#DAE2DE"/>
<stop offset="1" stop-color="#EEF1ED"/>
</linearGradient>
<linearGradient id="paint79_linear_906_3922" x1="197.499" y1="18" x2="197" y2="309" gradientUnits="userSpaceOnUse">
<stop stop-color="#DAE2DE"/>
<stop offset="1" stop-color="#EEF1ED"/>
</linearGradient>
<linearGradient id="paint80_linear_906_3922" x1="197.499" y1="18" x2="197" y2="309" gradientUnits="userSpaceOnUse">
<stop stop-color="#DAE2DE"/>
<stop offset="1" stop-color="#EEF1ED"/>
</linearGradient>
<linearGradient id="paint81_linear_906_3922" x1="197.499" y1="18" x2="197" y2="309" gradientUnits="userSpaceOnUse">
<stop stop-color="#DAE2DE"/>
<stop offset="1" stop-color="#EEF1ED"/>
</linearGradient>
<linearGradient id="paint82_linear_906_3922" x1="197.499" y1="18" x2="197" y2="309" gradientUnits="userSpaceOnUse">
<stop stop-color="#DAE2DE"/>
<stop offset="1" stop-color="#EEF1ED"/>
</linearGradient>
<linearGradient id="paint83_linear_906_3922" x1="197.499" y1="18" x2="197" y2="309" gradientUnits="userSpaceOnUse">
<stop stop-color="#DAE2DE"/>
<stop offset="1" stop-color="#EEF1ED"/>
</linearGradient>
<linearGradient id="paint84_linear_906_3922" x1="197.499" y1="18" x2="197" y2="309" gradientUnits="userSpaceOnUse">
<stop stop-color="#DAE2DE"/>
<stop offset="1" stop-color="#EEF1ED"/>
</linearGradient>
<linearGradient id="paint85_linear_906_3922" x1="197.499" y1="18" x2="197" y2="309" gradientUnits="userSpaceOnUse">
<stop stop-color="#DAE2DE"/>
<stop offset="1" stop-color="#EEF1ED"/>
</linearGradient>
<linearGradient id="paint86_linear_906_3922" x1="197.499" y1="18" x2="197" y2="309" gradientUnits="userSpaceOnUse">
<stop stop-color="#DAE2DE"/>
<stop offset="1" stop-color="#EEF1ED"/>
</linearGradient>
<linearGradient id="paint87_linear_906_3922" x1="197.499" y1="18" x2="197" y2="309" gradientUnits="userSpaceOnUse">
<stop stop-color="#DAE2DE"/>
<stop offset="1" stop-color="#EEF1ED"/>
</linearGradient>
<linearGradient id="paint88_linear_906_3922" x1="197.499" y1="18" x2="197" y2="309" gradientUnits="userSpaceOnUse">
<stop stop-color="#DAE2DE"/>
<stop offset="1" stop-color="#EEF1ED"/>
</linearGradient>
<linearGradient id="paint89_linear_906_3922" x1="197.499" y1="18" x2="197" y2="309" gradientUnits="userSpaceOnUse">
<stop stop-color="#DAE2DE"/>
<stop offset="1" stop-color="#EEF1ED"/>
</linearGradient>
<linearGradient id="paint90_linear_906_3922" x1="197.499" y1="18" x2="197" y2="309" gradientUnits="userSpaceOnUse">
<stop stop-color="#DAE2DE"/>
<stop offset="1" stop-color="#EEF1ED"/>
</linearGradient>
<linearGradient id="paint91_linear_906_3922" x1="197.499" y1="18" x2="197" y2="309" gradientUnits="userSpaceOnUse">
<stop stop-color="#DAE2DE"/>
<stop offset="1" stop-color="#EEF1ED"/>
</linearGradient>
<linearGradient id="paint92_linear_906_3922" x1="197.499" y1="18" x2="197" y2="309" gradientUnits="userSpaceOnUse">
<stop stop-color="#DAE2DE"/>
<stop offset="1" stop-color="#EEF1ED"/>
</linearGradient>
<linearGradient id="paint93_linear_906_3922" x1="197.499" y1="18" x2="197" y2="309" gradientUnits="userSpaceOnUse">
<stop stop-color="#DAE2DE"/>
<stop offset="1" stop-color="#EEF1ED"/>
</linearGradient>
<linearGradient id="paint94_linear_906_3922" x1="197.499" y1="18" x2="197" y2="309" gradientUnits="userSpaceOnUse">
<stop stop-color="#DAE2DE"/>
<stop offset="1" stop-color="#EEF1ED"/>
</linearGradient>
<linearGradient id="paint95_linear_906_3922" x1="197.499" y1="18" x2="197" y2="309" gradientUnits="userSpaceOnUse">
<stop stop-color="#DAE2DE"/>
<stop offset="1" stop-color="#EEF1ED"/>
</linearGradient>
<linearGradient id="paint96_linear_906_3922" x1="197.499" y1="18" x2="197" y2="309" gradientUnits="userSpaceOnUse">
<stop stop-color="#DAE2DE"/>
<stop offset="1" stop-color="#EEF1ED"/>
</linearGradient>
<linearGradient id="paint97_linear_906_3922" x1="197.499" y1="18" x2="197" y2="309" gradientUnits="userSpaceOnUse">
<stop stop-color="#DAE2DE"/>
<stop offset="1" stop-color="#EEF1ED"/>
</linearGradient>
<linearGradient id="paint98_linear_906_3922" x1="197.499" y1="18" x2="197" y2="309" gradientUnits="userSpaceOnUse">
<stop stop-color="#DAE2DE"/>
<stop offset="1" stop-color="#EEF1ED"/>
</linearGradient>
<linearGradient id="paint99_linear_906_3922" x1="197.499" y1="18" x2="197" y2="309" gradientUnits="userSpaceOnUse">
<stop stop-color="#DAE2DE"/>
<stop offset="1" stop-color="#EEF1ED"/>
</linearGradient>
<linearGradient id="paint100_linear_906_3922" x1="197.499" y1="18" x2="197" y2="309" gradientUnits="userSpaceOnUse">
<stop stop-color="#DAE2DE"/>
<stop offset="1" stop-color="#EEF1ED"/>
</linearGradient>
<linearGradient id="paint101_linear_906_3922" x1="197.499" y1="18" x2="197" y2="309" gradientUnits="userSpaceOnUse">
<stop stop-color="#DAE2DE"/>
<stop offset="1" stop-color="#EEF1ED"/>
</linearGradient>
<linearGradient id="paint102_linear_906_3922" x1="197.499" y1="18" x2="197" y2="309" gradientUnits="userSpaceOnUse">
<stop stop-color="#DAE2DE"/>
<stop offset="1" stop-color="#EEF1ED"/>
</linearGradient>
<linearGradient id="paint103_linear_906_3922" x1="197.499" y1="18" x2="197" y2="309" gradientUnits="userSpaceOnUse">
<stop stop-color="#DAE2DE"/>
<stop offset="1" stop-color="#EEF1ED"/>
</linearGradient>
<linearGradient id="paint104_linear_906_3922" x1="197.499" y1="18" x2="197" y2="309" gradientUnits="userSpaceOnUse">
<stop stop-color="#DAE2DE"/>
<stop offset="1" stop-color="#EEF1ED"/>
</linearGradient>
<linearGradient id="paint105_linear_906_3922" x1="197.499" y1="18" x2="197" y2="309" gradientUnits="userSpaceOnUse">
<stop stop-color="#DAE2DE"/>
<stop offset="1" stop-color="#EEF1ED"/>
</linearGradient>
<linearGradient id="paint106_linear_906_3922" x1="197.499" y1="18" x2="197" y2="309" gradientUnits="userSpaceOnUse">
<stop stop-color="#DAE2DE"/>
<stop offset="1" stop-color="#EEF1ED"/>
</linearGradient>
<linearGradient id="paint107_linear_906_3922" x1="197.499" y1="18" x2="197" y2="309" gradientUnits="userSpaceOnUse">
<stop stop-color="#DAE2DE"/>
<stop offset="1" stop-color="#EEF1ED"/>
</linearGradient>
<linearGradient id="paint108_linear_906_3922" x1="197.499" y1="18" x2="197" y2="309" gradientUnits="userSpaceOnUse">
<stop stop-color="#DAE2DE"/>
<stop offset="1" stop-color="#EEF1ED"/>
</linearGradient>
<linearGradient id="paint109_linear_906_3922" x1="197.499" y1="18" x2="197" y2="309" gradientUnits="userSpaceOnUse">
<stop stop-color="#DAE2DE"/>
<stop offset="1" stop-color="#EEF1ED"/>
</linearGradient>
<linearGradient id="paint110_linear_906_3922" x1="197.499" y1="18" x2="197" y2="309" gradientUnits="userSpaceOnUse">
<stop stop-color="#DAE2DE"/>
<stop offset="1" stop-color="#EEF1ED"/>
</linearGradient>
<linearGradient id="paint111_linear_906_3922" x1="197.499" y1="18" x2="197" y2="309" gradientUnits="userSpaceOnUse">
<stop stop-color="#DAE2DE"/>
<stop offset="1" stop-color="#EEF1ED"/>
</linearGradient>
<linearGradient id="paint112_linear_906_3922" x1="197.499" y1="18" x2="197" y2="309" gradientUnits="userSpaceOnUse">
<stop stop-color="#DAE2DE"/>
<stop offset="1" stop-color="#EEF1ED"/>
</linearGradient>
<linearGradient id="paint113_linear_906_3922" x1="197.499" y1="18" x2="197" y2="309" gradientUnits="userSpaceOnUse">
<stop stop-color="#DAE2DE"/>
<stop offset="1" stop-color="#EEF1ED"/>
</linearGradient>
<linearGradient id="paint114_linear_906_3922" x1="197.499" y1="18" x2="197" y2="309" gradientUnits="userSpaceOnUse">
<stop stop-color="#DAE2DE"/>
<stop offset="1" stop-color="#EEF1ED"/>
</linearGradient>
<linearGradient id="paint115_linear_906_3922" x1="197.499" y1="18" x2="197" y2="309" gradientUnits="userSpaceOnUse">
<stop stop-color="#DAE2DE"/>
<stop offset="1" stop-color="#EEF1ED"/>
</linearGradient>
<linearGradient id="paint116_linear_906_3922" x1="197.499" y1="18" x2="197" y2="309" gradientUnits="userSpaceOnUse">
<stop stop-color="#DAE2DE"/>
<stop offset="1" stop-color="#EEF1ED"/>
</linearGradient>
<linearGradient id="paint117_linear_906_3922" x1="197.499" y1="18" x2="197" y2="309" gradientUnits="userSpaceOnUse">
<stop stop-color="#DAE2DE"/>
<stop offset="1" stop-color="#EEF1ED"/>
</linearGradient>
<linearGradient id="paint118_linear_906_3922" x1="197.499" y1="18" x2="197" y2="309" gradientUnits="userSpaceOnUse">
<stop stop-color="#DAE2DE"/>
<stop offset="1" stop-color="#EEF1ED"/>
</linearGradient>
<linearGradient id="paint119_linear_906_3922" x1="197.499" y1="18" x2="197" y2="309" gradientUnits="userSpaceOnUse">
<stop stop-color="#DAE2DE"/>
<stop offset="1" stop-color="#EEF1ED"/>
</linearGradient>
<linearGradient id="paint120_linear_906_3922" x1="197.499" y1="18" x2="197" y2="309" gradientUnits="userSpaceOnUse">
<stop stop-color="#DAE2DE"/>
<stop offset="1" stop-color="#EEF1ED"/>
</linearGradient>
<linearGradient id="paint121_linear_906_3922" x1="197.499" y1="18" x2="197" y2="309" gradientUnits="userSpaceOnUse">
<stop stop-color="#DAE2DE"/>
<stop offset="1" stop-color="#EEF1ED"/>
</linearGradient>
<linearGradient id="paint122_linear_906_3922" x1="197.499" y1="18" x2="197" y2="309" gradientUnits="userSpaceOnUse">
<stop stop-color="#DAE2DE"/>
<stop offset="1" stop-color="#EEF1ED"/>
</linearGradient>
<linearGradient id="paint123_linear_906_3922" x1="197.499" y1="18" x2="197" y2="309" gradientUnits="userSpaceOnUse">
<stop stop-color="#DAE2DE"/>
<stop offset="1" stop-color="#EEF1ED"/>
</linearGradient>
<linearGradient id="paint124_linear_906_3922" x1="197.499" y1="18" x2="197" y2="309" gradientUnits="userSpaceOnUse">
<stop stop-color="#DAE2DE"/>
<stop offset="1" stop-color="#EEF1ED"/>
</linearGradient>
<linearGradient id="paint125_linear_906_3922" x1="197.499" y1="18" x2="197" y2="309" gradientUnits="userSpaceOnUse">
<stop stop-color="#DAE2DE"/>
<stop offset="1" stop-color="#EEF1ED"/>
</linearGradient>
<linearGradient id="paint126_linear_906_3922" x1="197.499" y1="18" x2="197" y2="309" gradientUnits="userSpaceOnUse">
<stop stop-color="#DAE2DE"/>
<stop offset="1" stop-color="#EEF1ED"/>
</linearGradient>
<linearGradient id="paint127_linear_906_3922" x1="197.499" y1="18" x2="197" y2="309" gradientUnits="userSpaceOnUse">
<stop stop-color="#DAE2DE"/>
<stop offset="1" stop-color="#EEF1ED"/>
</linearGradient>
<linearGradient id="paint128_linear_906_3922" x1="197.499" y1="18" x2="197" y2="309" gradientUnits="userSpaceOnUse">
<stop stop-color="#DAE2DE"/>
<stop offset="1" stop-color="#EEF1ED"/>
</linearGradient>
<linearGradient id="paint129_linear_906_3922" x1="197.499" y1="18" x2="197" y2="309" gradientUnits="userSpaceOnUse">
<stop stop-color="#DAE2DE"/>
<stop offset="1" stop-color="#EEF1ED"/>
</linearGradient>
<linearGradient id="paint130_linear_906_3922" x1="197.499" y1="18" x2="197" y2="309" gradientUnits="userSpaceOnUse">
<stop stop-color="#DAE2DE"/>
<stop offset="1" stop-color="#EEF1ED"/>
</linearGradient>
<linearGradient id="paint131_linear_906_3922" x1="137" y1="124" x2="137" y2="178" gradientUnits="userSpaceOnUse">
<stop stop-color="#03B17C"/>
<stop offset="1" stop-color="#089E70"/>
</linearGradient>
<linearGradient id="paint132_linear_906_3922" x1="324" y1="124" x2="324" y2="178" gradientUnits="userSpaceOnUse">
<stop stop-color="#EE5A3D"/>
<stop offset="1" stop-color="#D2482C"/>
</linearGradient>
<clipPath id="clip0_906_3922">
<rect width="24" height="24" fill="white" transform="translate(312 139)"/>
</clipPath>
</defs>
</svg>
