<svg width="1355" height="253" viewBox="0 0 1355 253" fill="none" xmlns="http://www.w3.org/2000/svg">
<path d="M49.8112 187.059C42.7209 186.607 35.8102 185.164 29.079 182.727C22.3477 180.291 16.4242 176.997 11.3085 172.846C6.28249 168.605 2.513 163.642 0 157.958L23.8286 147.671C24.9953 150.107 27.0147 152.498 29.8867 154.844C32.8484 157.191 36.3038 159.131 40.2528 160.665C44.2018 162.108 48.3303 162.83 52.6383 162.83C56.8565 162.83 60.7607 162.244 64.3506 161.071C68.0304 159.807 71.037 157.912 73.3705 155.386C75.704 152.859 76.8708 149.836 76.8708 146.317C76.8708 142.347 75.5245 139.279 72.832 137.113C70.2293 134.857 66.9534 133.143 63.0044 131.97C59.0554 130.797 55.1064 129.669 51.1574 128.586C42.3619 126.601 34.2845 123.894 26.925 120.465C19.6552 116.945 13.8664 112.479 9.55836 107.065C5.25037 101.56 3.09637 94.8377 3.09637 86.897C3.09637 78.2344 5.42987 70.7448 10.0969 64.4283C14.7639 58.0216 20.8668 53.1037 28.4058 49.6748C36.0346 46.2458 44.1569 44.5313 52.7729 44.5313C63.5429 44.5313 73.4154 46.8323 82.3904 51.4343C91.3654 56.0364 98.2312 62.3529 102.988 70.3838L80.7749 83.6485C79.4286 80.9414 77.4093 78.5051 74.7168 76.3394C72.0243 74.1737 68.9728 72.4593 65.5623 71.196C62.1518 69.8424 58.6067 69.0754 54.9269 68.895C50.3497 68.7145 46.0866 69.2559 42.1376 70.5192C38.2783 71.6923 35.1819 73.5872 32.8484 76.204C30.515 78.8209 29.3482 82.1596 29.3482 86.2202C29.3482 90.1906 30.7393 93.1684 33.5216 95.1535C36.3038 97.0485 39.8041 98.5825 44.0223 99.7556C48.3303 100.929 52.728 102.237 57.2155 103.681C65.2033 106.207 72.6974 109.321 79.6979 113.02C86.6984 116.63 92.3526 121.096 96.6606 126.42C100.969 131.744 103.033 138.241 102.853 145.911C102.853 154.393 100.295 161.838 95.1797 168.244C90.1537 174.651 83.602 179.524 75.5245 182.863C67.447 186.201 58.8759 187.6 49.8112 187.059Z" fill="url(#paint0_linear_851_369)" fill-opacity="0.5"/>
<path d="M226.111 49.1333H254.113V184.487H225.976L237.429 155.386C233.48 162.334 215.61 177.403 208.879 181.644C202.148 185.886 194.205 188.006 185.05 188.006C175.178 188.006 165.889 186.156 157.183 182.457C148.477 178.667 140.804 173.433 134.162 166.756C127.61 160.078 122.495 152.408 118.815 143.745C115.135 134.993 113.295 125.608 113.295 115.592C113.295 105.937 115.09 96.868 118.68 88.3859C122.27 79.8135 127.251 72.3239 133.624 65.9172C139.996 59.5104 147.355 54.5024 155.702 50.8929C164.138 47.1933 173.158 45.3434 182.762 45.3434C192.544 45.3434 201.16 47.5993 208.61 52.1111C216.149 56.5327 232.492 71.8276 237.429 78.7758L226.111 49.1333ZM184.377 160.8C192.275 160.8 199.186 158.86 205.109 154.98C211.033 151.009 215.61 145.686 218.841 139.008C222.162 132.331 223.822 124.931 223.822 116.81C223.822 108.599 222.162 101.154 218.841 94.4768C215.52 87.7993 210.898 82.5205 204.975 78.6404C199.141 74.67 192.275 72.6849 184.377 72.6849C176.569 72.6849 169.434 74.67 162.972 78.6404C156.51 82.6108 151.394 87.9347 147.625 94.6121C143.855 101.29 141.97 108.689 141.97 116.81C141.97 125.022 143.9 132.466 147.759 139.143C151.708 145.731 156.869 151.009 163.241 154.98C169.703 158.86 176.748 160.8 184.377 160.8Z" fill="url(#paint1_linear_851_369)" fill-opacity="0.5"/>
<path d="M378.104 49.1333H406.106V188.006C406.106 197.3 404.132 205.873 400.183 213.723C396.323 221.574 391.073 228.341 384.432 234.026C377.79 239.801 370.161 244.268 361.545 247.426C353.019 250.585 344.089 252.164 334.755 252.164C325.331 252.164 316.267 250.133 307.561 246.073C298.855 242.102 291.181 236.688 284.54 229.83C277.988 222.972 273.097 215.212 269.866 206.55H301.772C301.772 206.55 300.246 205.467 304.195 209.798C308.234 214.129 312.901 217.558 318.196 220.085C323.581 222.611 329.101 223.875 334.755 223.875C340.32 223.875 345.66 222.972 350.775 221.168C355.981 219.453 360.603 217.017 364.642 213.859C368.77 210.7 372.046 206.91 374.469 202.489C376.893 198.067 378.104 193.24 378.104 188.006V165.131C373.707 171.989 368.052 177.539 361.142 181.78C354.231 185.931 346.198 188.006 337.044 188.006C327.53 188.006 318.555 186.156 310.119 182.457C301.682 178.757 294.278 173.659 287.906 167.162C281.533 160.574 276.552 152.995 272.962 144.422C269.372 135.85 267.577 126.646 267.577 116.81C267.577 106.974 269.372 97.7704 272.962 89.198C276.552 80.5354 281.533 72.9556 287.906 66.4586C294.278 59.8714 301.682 54.7279 310.119 51.0283C318.555 47.3286 327.53 45.4788 337.044 45.4788C346.198 45.4788 354.231 47.5993 361.142 51.8404C368.052 55.9913 380.034 72.6397 384.432 79.5879L378.104 49.1333ZM337.313 160.8C345.121 160.8 351.942 158.815 357.776 154.844C363.61 150.784 368.142 145.415 371.373 138.737C374.604 132.06 376.22 124.751 376.22 116.81C376.22 108.689 374.559 101.335 371.238 94.7475C368.007 88.07 363.475 82.7461 357.641 78.7758C351.808 74.7152 345.031 72.6849 337.313 72.6849C329.774 72.6849 322.863 74.67 316.581 78.6404C310.388 82.6108 305.452 87.9347 301.772 94.6121C298.092 101.29 296.252 108.689 296.252 116.81C296.252 124.931 298.092 132.331 301.772 139.008C305.541 145.686 310.523 151.009 316.715 154.98C322.998 158.86 329.864 160.8 337.313 160.8Z" fill="url(#paint2_linear_851_369)" fill-opacity="0.5"/>
<path d="M492.59 188.006C480.205 188.006 468.896 184.803 458.665 178.396C448.523 171.989 440.4 163.417 434.297 152.679C428.284 141.851 425.278 129.894 425.278 116.81C425.278 106.884 427.028 97.635 430.528 89.0626C434.028 80.4 438.83 72.8202 444.933 66.3232C451.126 59.736 458.306 54.5926 466.473 50.8929C474.64 47.1933 483.346 45.3434 492.59 45.3434C502.911 45.3434 512.38 47.5091 520.996 51.8404C529.612 56.0815 536.971 61.9919 543.074 69.5717C549.177 77.0613 553.665 85.7239 556.537 95.5596C559.409 105.305 560.261 115.682 559.095 126.691H455.299C456.466 132.917 458.709 138.557 462.03 143.61C465.441 148.573 469.749 152.498 474.954 155.386C480.249 158.273 486.128 159.762 492.59 159.853C499.411 159.853 505.604 158.138 511.168 154.709C516.822 151.28 521.445 146.543 525.035 140.497L553.44 147.129C548.055 159.131 539.933 168.966 529.073 176.636C518.214 184.216 506.052 188.006 492.59 188.006ZM454.357 105.17H530.823C529.926 98.6727 527.637 92.8074 523.958 87.5738C520.368 82.2498 515.835 78.0539 510.36 74.9859C504.975 71.8276 499.052 70.2485 492.59 70.2485C486.218 70.2485 480.294 71.7825 474.82 74.8505C469.435 77.9185 464.947 82.1145 461.357 87.4384C457.857 92.6721 455.523 98.5825 454.357 105.17Z" fill="url(#paint3_linear_851_369)" fill-opacity="0.5"/>
<path d="M699.86 99.6202V184.487H671.858V106.523C671.858 100.477 670.377 94.9731 667.415 90.0101C664.543 85.0471 660.639 81.1219 655.703 78.2344C650.856 75.2566 645.381 73.7677 639.278 73.7677C633.355 73.7677 627.925 75.2566 622.989 78.2344C618.053 81.1219 614.104 85.0471 611.142 90.0101C608.18 94.9731 606.699 100.477 606.699 106.523V184.487H578.697V49.1333H606.699V63.4808C611.366 57.8862 617.11 53.4647 623.931 50.2162C630.752 46.9677 638.112 45.3434 646.01 45.3434C655.972 45.3434 665.037 47.7798 673.204 52.6525C681.371 57.5253 687.833 64.0674 692.59 72.2788C697.436 80.4902 699.86 89.604 699.86 99.6202Z" fill="url(#paint4_linear_851_369)" fill-opacity="0.5"/>
<path d="M785.025 77.2869H766.85L766.716 184.487H738.714L738.848 77.2869H717.443V49.1333H738.848L738.714 6.63233H766.716L766.85 49.1333H795.121L785.025 77.2869Z" fill="url(#paint5_linear_851_369)" fill-opacity="0.5"/>
<path d="M814.69 49.1333H842.692V184.487H814.69V49.1333ZM828.961 29.5071C824.653 29.5071 821.063 28.1084 818.191 25.3111C815.319 22.5138 813.883 18.9946 813.883 14.7535C813.883 10.6027 815.319 7.12861 818.191 4.33131C821.063 1.44377 824.608 0 828.826 0C832.954 0 836.455 1.44377 839.327 4.33131C842.199 7.12861 843.635 10.6027 843.635 14.7535C843.635 18.9946 842.199 22.5138 839.327 25.3111C836.544 28.1084 833.089 29.5071 828.961 29.5071Z" fill="url(#paint6_linear_851_369)" fill-opacity="0.5"/>
<path d="M957.754 146.046L982.795 159.717C976.692 168.29 968.928 175.147 959.505 180.291C950.171 185.434 940.029 188.006 929.079 188.006C916.694 188.006 905.385 184.803 895.154 178.396C885.012 171.989 876.89 163.417 870.787 152.679C864.773 141.851 861.767 129.894 861.767 116.81C861.767 106.884 863.517 97.635 867.017 89.0626C870.518 80.4 875.319 72.8202 881.422 66.3232C887.615 59.736 894.795 54.5926 902.962 50.8929C911.129 47.1933 919.835 45.3434 929.079 45.3434C940.029 45.3434 950.171 47.9152 959.505 53.0586C968.928 58.202 976.692 65.1051 982.795 73.7677L957.754 87.4384C953.985 82.9266 949.587 79.4977 944.561 77.1515C939.535 74.7152 934.375 73.497 929.079 73.497C921.72 73.497 915.034 75.5273 909.02 79.5879C903.097 83.5583 898.385 88.837 894.885 95.4242C891.474 101.921 889.769 109.05 889.769 116.81C889.769 124.48 891.519 131.609 895.019 138.196C898.519 144.693 903.231 149.927 909.155 153.897C915.168 157.867 921.81 159.853 929.079 159.853C934.644 159.853 939.939 158.589 944.965 156.063C949.991 153.536 954.254 150.197 957.754 146.046Z" fill="url(#paint7_linear_851_369)" fill-opacity="0.5"/>
<path d="M1044.79 187.059C1037.7 186.607 1030.79 185.164 1024.06 182.727C1017.33 180.291 1011.41 176.997 1006.29 172.846C1001.26 168.605 997.495 163.642 994.982 157.958L1018.81 147.671C1019.98 150.107 1022 152.498 1024.87 154.844C1027.83 157.191 1031.29 159.131 1035.24 160.665C1039.18 162.108 1043.31 162.83 1047.62 162.83C1051.84 162.83 1055.74 162.244 1059.33 161.071C1063.01 159.807 1066.02 157.912 1068.35 155.386C1070.69 152.859 1071.85 149.836 1071.85 146.317C1071.85 142.347 1070.51 139.279 1067.81 137.113C1065.21 134.857 1061.94 133.143 1057.99 131.97C1054.04 130.797 1050.09 129.669 1046.14 128.586C1037.34 126.601 1029.27 123.894 1021.91 120.465C1014.64 116.945 1008.85 112.479 1004.54 107.065C1000.23 101.56 998.079 94.8377 998.079 86.897C998.079 78.2344 1000.41 70.7448 1005.08 64.4283C1009.75 58.0216 1015.85 53.1037 1023.39 49.6748C1031.02 46.2458 1039.14 44.5313 1047.76 44.5313C1058.53 44.5313 1068.4 46.8323 1077.37 51.4343C1086.35 56.0364 1093.21 62.3529 1097.97 70.3838L1075.76 83.6485C1074.41 80.9414 1072.39 78.5051 1069.7 76.3394C1067.01 74.1737 1063.96 72.4593 1060.54 71.196C1057.13 69.8424 1053.59 69.0754 1049.91 68.895C1045.33 68.7145 1041.07 69.2559 1037.12 70.5192C1033.26 71.6923 1030.16 73.5872 1027.83 76.204C1025.5 78.8209 1024.33 82.1596 1024.33 86.2202C1024.33 90.1906 1025.72 93.1684 1028.5 95.1535C1031.29 97.0485 1034.79 98.5825 1039 99.7556C1043.31 100.929 1047.71 102.237 1052.2 103.681C1060.19 106.207 1067.68 109.321 1074.68 113.02C1081.68 116.63 1087.34 121.096 1091.64 126.42C1095.95 131.744 1098.02 138.241 1097.84 145.911C1097.84 154.393 1095.28 161.838 1090.16 168.244C1085.14 174.651 1078.58 179.524 1070.51 182.863C1062.43 186.201 1053.86 187.6 1044.79 187.059Z" fill="url(#paint8_linear_851_369)" fill-opacity="0.5"/>
<path d="M1126.43 188.006C1122.3 188.006 1118.8 186.562 1115.93 183.675C1113.15 180.787 1111.76 177.268 1111.76 173.117C1111.76 169.057 1113.15 165.583 1115.93 162.695C1118.8 159.807 1122.3 158.364 1126.43 158.364C1130.56 158.364 1134.06 159.807 1136.93 162.695C1139.81 165.583 1141.24 169.057 1141.24 173.117C1141.24 177.268 1139.81 180.787 1136.93 183.675C1134.06 186.562 1130.56 188.006 1126.43 188.006Z" fill="url(#paint9_linear_851_369)" fill-opacity="0.5"/>
<path d="M1273.88 49.1333H1301.88V184.487H1273.75L1285.82 156.063C1281.87 163.011 1263.38 177.403 1256.65 181.644C1249.92 185.886 1241.97 188.006 1232.82 188.006C1222.95 188.006 1213.66 186.156 1204.95 182.457C1196.25 178.667 1188.57 173.433 1181.93 166.756C1175.38 160.078 1170.26 152.408 1166.58 143.745C1162.91 134.993 1161.07 125.608 1161.07 115.592C1161.07 105.937 1162.86 96.868 1166.45 88.3859C1170.04 79.8135 1175.02 72.3239 1181.39 65.9172C1187.77 59.5104 1195.13 54.5024 1203.47 50.8929C1211.91 47.1933 1220.93 45.3434 1230.53 45.3434C1240.31 45.3434 1248.93 47.5993 1256.38 52.1111C1263.92 56.5327 1280.88 70.2034 1285.82 77.1515L1273.88 49.1333ZM1232.15 160.8C1240.05 160.8 1246.96 158.86 1252.88 154.98C1258.8 151.009 1263.38 145.686 1266.61 139.008C1269.93 132.331 1271.59 124.931 1271.59 116.81C1271.59 108.599 1269.93 101.154 1266.61 94.4768C1263.29 87.7993 1258.67 82.5205 1252.74 78.6404C1246.91 74.67 1240.05 72.6849 1232.15 72.6849C1224.34 72.6849 1217.2 74.67 1210.74 78.6404C1204.28 82.6108 1199.16 87.9347 1195.39 94.6121C1191.63 101.29 1189.74 108.689 1189.74 116.81C1189.74 125.022 1191.67 132.466 1195.53 139.143C1199.48 145.731 1204.64 151.009 1211.01 154.98C1217.47 158.86 1224.52 160.8 1232.15 160.8Z" fill="url(#paint10_linear_851_369)" fill-opacity="0.5"/>
<path d="M1326.05 49.1333H1354.06V184.487H1326.05V49.1333Z" fill="url(#paint11_linear_851_369)" fill-opacity="0.5"/>
<path d="M1329.56 25.3111C1332.43 28.1084 1336.02 29.5071 1340.33 29.5071C1344.45 29.5071 1347.91 28.1084 1350.69 25.3111C1353.56 22.5138 1355 18.9946 1355 14.7535C1355 10.6027 1353.56 7.12861 1350.69 4.33131C1347.82 1.44377 1344.32 0 1340.19 0C1335.97 0 1332.43 1.44377 1329.56 4.33131C1326.68 7.12861 1325.25 10.6027 1325.25 14.7535C1325.25 18.9946 1326.68 22.5138 1329.56 25.3111Z" fill="url(#paint12_linear_851_369)" fill-opacity="0.5"/>
<defs>
<linearGradient id="paint0_linear_851_369" x1="1333.95" y1="-0.719868" x2="1337.67" y2="225.455" gradientUnits="userSpaceOnUse">
<stop stop-color="#403F3F"/>
<stop offset="1" stop-color="#111111"/>
</linearGradient>
<linearGradient id="paint1_linear_851_369" x1="1333.95" y1="-0.719868" x2="1337.67" y2="225.455" gradientUnits="userSpaceOnUse">
<stop stop-color="#403F3F"/>
<stop offset="1" stop-color="#111111"/>
</linearGradient>
<linearGradient id="paint2_linear_851_369" x1="1333.95" y1="-0.719868" x2="1337.67" y2="225.455" gradientUnits="userSpaceOnUse">
<stop stop-color="#403F3F"/>
<stop offset="1" stop-color="#111111"/>
</linearGradient>
<linearGradient id="paint3_linear_851_369" x1="1333.95" y1="-0.719868" x2="1337.67" y2="225.455" gradientUnits="userSpaceOnUse">
<stop stop-color="#403F3F"/>
<stop offset="1" stop-color="#111111"/>
</linearGradient>
<linearGradient id="paint4_linear_851_369" x1="1333.95" y1="-0.719868" x2="1337.67" y2="225.455" gradientUnits="userSpaceOnUse">
<stop stop-color="#403F3F"/>
<stop offset="1" stop-color="#111111"/>
</linearGradient>
<linearGradient id="paint5_linear_851_369" x1="1333.95" y1="-0.719868" x2="1337.67" y2="225.455" gradientUnits="userSpaceOnUse">
<stop stop-color="#403F3F"/>
<stop offset="1" stop-color="#111111"/>
</linearGradient>
<linearGradient id="paint6_linear_851_369" x1="1333.95" y1="-0.719868" x2="1337.67" y2="225.455" gradientUnits="userSpaceOnUse">
<stop stop-color="#403F3F"/>
<stop offset="1" stop-color="#111111"/>
</linearGradient>
<linearGradient id="paint7_linear_851_369" x1="1333.95" y1="-0.719868" x2="1337.67" y2="225.455" gradientUnits="userSpaceOnUse">
<stop stop-color="#403F3F"/>
<stop offset="1" stop-color="#111111"/>
</linearGradient>
<linearGradient id="paint8_linear_851_369" x1="1333.95" y1="-0.719868" x2="1337.67" y2="225.455" gradientUnits="userSpaceOnUse">
<stop stop-color="#403F3F"/>
<stop offset="1" stop-color="#111111"/>
</linearGradient>
<linearGradient id="paint9_linear_851_369" x1="1333.95" y1="-0.719868" x2="1337.67" y2="225.455" gradientUnits="userSpaceOnUse">
<stop stop-color="#403F3F"/>
<stop offset="1" stop-color="#111111"/>
</linearGradient>
<linearGradient id="paint10_linear_851_369" x1="1333.95" y1="-0.719868" x2="1337.67" y2="225.455" gradientUnits="userSpaceOnUse">
<stop stop-color="#403F3F"/>
<stop offset="1" stop-color="#111111"/>
</linearGradient>
<linearGradient id="paint11_linear_851_369" x1="1333.95" y1="-0.719868" x2="1337.67" y2="225.455" gradientUnits="userSpaceOnUse">
<stop stop-color="#403F3F"/>
<stop offset="1" stop-color="#111111"/>
</linearGradient>
<linearGradient id="paint12_linear_851_369" x1="1333.95" y1="-0.719868" x2="1337.67" y2="225.455" gradientUnits="userSpaceOnUse">
<stop stop-color="#403F3F"/>
<stop offset="1" stop-color="#111111"/>
</linearGradient>
</defs>
</svg>
